<?xml version="1.0" standalone="no"?>
<!DOCTYPE svg PUBLIC "-//W3C//DTD SVG 20010904//EN"
 "http://www.w3.org/TR/2001/REC-SVG-20010904/DTD/svg10.dtd">
<svg version="1.0" xmlns="http://www.w3.org/2000/svg"
 width="750.000000pt" height="1013.000000pt" viewBox="0 0 750.000000 1013.000000"
 preserveAspectRatio="xMidYMid meet">

<g transform="translate(0.000000,1013.000000) scale(0.100000,-0.100000)"
fill="#000000" stroke="none">
<path d="M24 10115 c3 -9 6 -30 6 -47 0 -23 4 -29 15 -24 29 11 15 -12 -15
-26 -25 -11 -30 -19 -30 -46 0 -18 4 -31 9 -27 5 3 13 0 17 -6 4 -6 0 -16 -9
-20 -9 -6 -15 -22 -15 -40 1 -21 4 -27 12 -19 5 5 18 10 29 10 10 0 15 5 12
10 -11 17 3 11 24 -11 20 -21 18 -49 -2 -49 -21 0 -77 -45 -77 -63 0 -15 5
-14 40 8 22 14 42 25 45 25 4 0 5 -15 3 -32 -3 -30 -6 -33 -35 -32 -18 1 -33
-2 -33 -8 0 -5 -4 -6 -10 -3 -6 4 -10 -15 -10 -49 0 -37 4 -56 12 -56 9 0 9
-3 0 -12 -15 -15 -16 -62 -1 -53 6 4 8 9 5 13 -8 7 44 33 54 27 15 -9 17 -67
3 -72 -7 -3 -13 -13 -13 -22 0 -14 -2 -14 -10 -1 -6 10 -10 11 -10 3 0 -7 -9
-13 -20 -13 -20 0 -20 -7 -20 -4740 l0 -4740 3750 0 3750 0 0 209 c0 207 0
210 -22 213 -12 2 -23 9 -26 16 -2 8 3 12 13 10 27 -5 28 16 3 27 -18 8 -25
22 -32 62 -11 66 -4 83 34 83 l30 0 0 104 c0 113 -7 169 -21 160 -5 -3 -9 -30
-9 -60 0 -30 -4 -54 -10 -54 -5 0 -10 17 -10 38 0 20 -4 43 -9 50 -13 21 -33
-12 -29 -49 2 -18 -2 -34 -8 -36 -12 -4 -24 70 -24 155 0 49 1 52 25 52 27 0
35 -24 10 -34 -21 -8 -19 -30 5 -51 19 -18 20 -17 20 3 0 24 28 30 48 10 9 -9
12 13 12 102 0 163 -8 221 -32 228 -25 6 -16 28 11 25 20 -3 21 2 21 66 0 50
-4 70 -14 74 -8 3 -86 9 -173 13 -242 10 -539 -23 -614 -68 l-31 -19 7 -142
c4 -78 13 -236 20 -352 7 -116 10 -213 6 -217 -28 -29 -1202 -185 -1616 -214
-38 -3 -113 -10 -165 -15 -85 -8 -502 -37 -540 -37 -8 0 -77 -5 -153 -11 -76
-6 -221 -13 -324 -17 -186 -7 -186 -7 -181 14 8 28 -32 68 -50 50 -16 -16 -15
-38 2 -38 8 0 16 -7 20 -15 4 -11 -2 -15 -27 -14 -18 0 -44 -2 -59 -6 -24 -6
-27 -5 -23 14 2 12 -1 21 -6 21 -5 0 -9 -8 -7 -17 3 -16 -8 -18 -82 -21 -211
-7 -292 -12 -301 -17 -5 -4 -9 1 -9 9 0 18 -13 20 -39 7 -21 -12 -194 -23
-216 -15 -14 6 -13 9 5 26 12 11 17 24 13 31 -5 8 -8 7 -11 -4 -5 -27 -38 -11
-52 27 -16 40 -30 44 -30 9 0 -14 -4 -25 -10 -25 -5 0 -10 7 -10 15 0 8 -4 15
-10 15 -5 0 -10 -7 -10 -15 0 -8 -4 -15 -10 -15 -5 0 -10 8 -10 17 0 15 -1 15
-12 1 -20 -24 -68 -52 -68 -39 0 6 9 15 19 19 17 6 18 10 6 37 l-12 30 -10
-35 c-5 -20 -17 -36 -26 -38 -12 -2 -15 1 -11 12 3 9 1 16 -5 16 -6 0 -11 -4
-11 -10 0 -5 -16 -10 -36 -10 -20 0 -33 -4 -29 -10 3 -5 13 -6 22 -3 13 5 15
2 10 -18 -4 -13 -7 -30 -7 -37 0 -8 -5 -10 -12 -5 -18 11 -68 12 -68 2 0 -18
-26 -8 -44 18 -16 21 -17 29 -7 45 17 27 5 36 -16 11 -25 -28 -48 -34 -70 -18
-14 11 -15 15 -3 15 9 1 6 5 -8 10 -12 5 -22 14 -22 20 0 13 27 13 35 0 8 -13
45 -13 45 -1 0 15 -30 41 -48 42 -9 1 -21 2 -27 4 -5 1 -23 3 -39 3 -23 2 -26
5 -17 15 6 8 7 17 3 21 -4 4 -7 11 -8 14 -3 23 -18 40 -30 35 -8 -3 -14 0 -14
7 0 18 -44 50 -51 38 -4 -6 -10 -1 -14 11 -3 11 -15 21 -25 21 -10 0 -22 5
-26 11 -3 6 -22 17 -40 25 -25 11 -34 20 -34 38 0 14 -7 26 -17 30 -38 13 -76
43 -102 81 -17 24 -34 39 -44 37 -9 -2 -17 1 -17 6 0 5 -13 12 -29 15 -28 6
-141 105 -141 125 0 6 -6 15 -13 19 -6 4 -12 14 -13 21 -1 6 -2 18 -2 26 -1 8
-11 18 -23 21 -12 4 -18 12 -15 21 3 7 -2 21 -12 30 -9 10 -31 39 -48 67 -17
27 -34 48 -39 46 -13 -4 -66 40 -102 84 -17 21 -124 97 -138 97 -3 0 -13 7
-21 15 -9 8 -24 15 -35 15 -11 0 -22 6 -25 14 -5 13 -54 36 -77 36 -5 0 1 -10
15 -23 14 -13 29 -30 34 -38 5 -7 27 -23 49 -34 53 -27 145 -137 145 -173 0
-20 3 -23 9 -13 7 10 11 0 17 -35 10 -69 8 -115 -7 -124 -6 -5 -9 -15 -6 -24
4 -10 1 -16 -7 -16 -7 0 -18 -11 -24 -25 -6 -14 -16 -25 -22 -25 -15 0 -12
-30 3 -30 6 0 4 -5 -5 -11 -10 -5 -18 -17 -18 -26 0 -9 -3 -13 -7 -10 -3 4
-13 1 -21 -6 -13 -10 -15 -9 -10 11 6 21 4 23 -24 17 -26 -6 -30 -5 -25 9 4 9
5 16 4 16 -1 0 -23 -7 -49 -15 -27 -8 -48 -11 -48 -6 0 12 -60 53 -83 56 -34
4 -59 16 -91 42 -16 13 -34 22 -41 19 -8 -3 -11 2 -8 14 4 15 1 18 -15 13 -11
-2 -33 2 -50 11 l-30 15 -6 -67 c-3 -37 -8 -179 -11 -317 -3 -137 -9 -253 -13
-256 -4 -4 -171 -11 -372 -16 -201 -4 -369 -8 -375 -8 -6 0 -12 69 -16 175 -4
115 -10 175 -18 178 -15 5 -14 69 1 79 7 4 14 19 16 33 1 14 4 39 6 55 2 17 7
85 11 153 4 67 11 125 16 127 4 3 145 9 314 14 289 9 344 15 321 38 -4 4 -11
1 -16 -6 -6 -11 -9 -10 -13 5 -4 16 -5 17 -6 2 -2 -28 -21 -21 -21 8 0 16 -4
23 -11 18 -8 -5 -10 1 -7 20 8 39 -10 42 -21 4 -8 -30 -9 -31 -12 -8 -1 14 -1
32 0 40 1 8 3 38 6 65 4 48 3 49 -9 20 -7 -16 -9 -31 -4 -33 22 -9 4 -22 -32
-22 -22 0 -40 5 -40 10 0 6 -7 10 -15 10 -8 0 -15 6 -15 14 0 28 -19 26 -36
-3 -23 -39 -50 -45 -69 -18 -13 19 -17 20 -25 7 -6 -9 -10 -10 -10 -3 0 7 -7
10 -18 6 -9 -3 -14 -3 -10 2 4 4 0 14 -10 21 -16 11 -16 13 2 33 19 21 19 22
0 36 -10 8 -24 13 -31 10 -6 -2 -14 4 -16 13 -3 10 -5 5 -6 -10 0 -16 -5 -28
-10 -28 -13 0 -22 28 -11 35 14 9 12 55 -1 55 -8 0 -8 4 1 15 15 18 5 35 -21
35 -17 0 -18 3 -9 20 6 11 17 20 25 20 8 0 15 6 15 14 0 7 6 19 14 25 11 10
16 9 23 -3 12 -22 36 -3 38 31 1 22 6 27 21 25 10 -2 25 -9 32 -15 10 -8 16
-7 21 1 7 12 43 5 96 -19 19 -8 158 -50 240 -72 22 -6 57 -21 77 -34 34 -21
68 -22 68 -3 0 12 -26 30 -33 23 -4 -3 -7 -1 -7 6 0 7 -9 11 -19 9 -10 -2 -29
6 -41 17 -12 11 -25 19 -29 18 -9 -3 -71 40 -71 50 0 8 -18 25 -100 92 -27 22
-49 46 -49 52 -1 7 -12 20 -26 29 -14 9 -28 27 -31 40 -3 13 -12 24 -20 24 -7
0 -16 10 -18 22 -13 65 -15 88 -6 88 15 0 12 20 -2 20 -7 0 -21 20 -32 43 -36
83 -68 140 -91 164 -23 25 -23 25 -30 4 -3 -11 -10 -21 -15 -21 -5 0 -12 -9
-15 -20 -4 -13 -14 -20 -28 -19 -17 1 -18 2 -4 6 21 5 23 23 3 23 -20 0 -29
-16 -21 -39 4 -13 12 -17 32 -13 19 4 24 1 21 -9 -3 -8 -16 -13 -32 -11 -24 2
-26 0 -26 -32 0 -19 6 -37 13 -39 7 -4 6 -6 -4 -6 -10 -1 -17 -10 -18 -23 -1
-46 -5 -58 -17 -58 -7 0 -19 -18 -25 -40 -11 -34 -16 -40 -41 -40 -15 0 -28
-4 -28 -9 0 -11 -46 -20 -57 -12 -19 14 -21 78 -10 341 4 91 9 284 12 430 3
146 8 330 10 410 2 80 7 280 10 445 6 341 11 532 26 1065 6 206 12 794 14
1305 4 1607 3 1512 21 1529 8 9 20 16 25 16 5 0 9 -131 9 -322 0 -216 4 -318
10 -308 9 13 11 13 20 0 9 -13 10 -13 10 0 0 12 12 15 53 15 28 0 56 -4 60
-10 6 -6 10 -6 14 3 5 13 128 17 171 6 26 -7 29 -21 5 -27 -17 -4 -17 -5 0 -6
18 -1 24 -21 6 -21 -6 0 -9 -7 -5 -15 3 -8 -4 -21 -15 -29 -20 -13 -19 -15 18
-45 22 -18 52 -60 73 -102 19 -39 39 -72 44 -73 4 0 27 34 50 76 22 43 46 76
51 75 14 -5 37 -209 25 -221 -19 -19 -33 12 -39 81 l-6 68 -21 -36 c-12 -20
-25 -45 -28 -55 -4 -11 -15 -30 -26 -44 l-20 -25 -17 21 c-10 12 -27 24 -38
28 -16 6 -18 5 -7 -5 6 -7 12 -23 12 -36 0 -13 5 -23 10 -23 7 0 7 -6 0 -19
-7 -14 -7 -22 0 -26 6 -4 8 -10 6 -14 -3 -4 15 -13 39 -20 49 -14 69 -33 79
-73 5 -22 3 -28 -9 -28 -21 0 -68 25 -84 44 -8 9 -21 16 -31 16 -9 0 -27 9
-40 20 -24 21 -41 22 -47 3 -2 -6 7 -13 21 -17 13 -3 31 -12 38 -19 23 -21 67
-47 82 -47 7 0 24 -8 37 -19 l23 -19 -35 -33 c-50 -48 -75 -67 -120 -91 -33
-17 -52 -38 -33 -38 8 0 48 22 54 30 10 12 75 48 100 53 40 10 51 -4 47 -59
-4 -53 6 -84 27 -84 8 0 18 -17 23 -37 11 -49 27 -51 47 -8 16 34 46 48 46 23
0 -7 7 -26 15 -42 20 -38 2 -63 -21 -31 -14 18 -17 18 -27 4 -7 -8 -20 -18
-31 -22 -17 -7 -18 -9 -2 -25 9 -10 16 -25 16 -33 0 -8 4 -19 9 -24 17 -19 73
-164 66 -175 -4 -6 1 -7 11 -3 11 4 15 2 11 -4 -4 -6 -3 -24 2 -39 5 -16 21
-67 36 -114 28 -91 36 -111 82 -205 17 -33 36 -77 43 -98 7 -21 23 -57 36 -80
13 -23 24 -49 24 -58 0 -9 6 -19 13 -22 6 -2 18 -23 25 -46 6 -23 21 -50 32
-61 11 -11 22 -32 25 -47 11 -48 48 -116 58 -106 4 3 7 -6 7 -20 0 -15 5 -27
10 -27 6 0 10 5 10 10 0 6 7 10 15 10 17 0 20 -16 5 -25 -15 -9 -12 -25 4 -25
21 0 28 -28 9 -38 -11 -7 -13 -17 -8 -40 7 -32 21 -49 32 -38 3 3 0 12 -6 20
-15 18 -3 25 29 15 14 -4 19 -7 13 -8 -27 -2 -11 -21 27 -32 32 -10 38 -15 29
-26 -9 -10 -7 -13 7 -13 16 0 16 -2 4 -10 -9 -6 -17 -5 -22 2 -5 9 -13 9 -32
0 -35 -16 -33 -32 4 -32 36 0 39 -11 8 -25 -20 -9 -23 -17 -21 -64 1 -37 6
-59 17 -67 9 -6 16 -19 16 -28 0 -16 3 -15 29 3 15 11 31 18 34 15 10 -10 47
7 47 21 0 14 29 35 49 35 6 0 8 -7 4 -15 -5 -14 -2 -14 21 -4 22 11 24 14 11
21 -13 8 -10 15 17 49 17 21 34 37 36 34 3 -3 10 5 17 18 6 12 17 21 24 19 7
-1 19 3 27 9 12 9 14 5 14 -24 0 -30 -3 -35 -17 -30 -15 6 -16 5 -3 -9 8 -9
17 -12 18 -7 2 5 11 9 19 9 11 0 13 6 8 23 -15 49 -12 62 17 59 17 -2 31 4 37
15 6 10 17 27 26 37 15 20 15 20 29 0 8 -10 19 -20 25 -20 6 -1 16 -2 23 -3 8
-1 5 -8 -6 -19 -13 -12 -20 -14 -23 -4 -7 18 -60 15 -67 -4 -3 -8 -2 -12 4 -9
18 11 32 -5 19 -22 -10 -12 -10 -16 2 -24 21 -13 34 -5 32 20 -2 11 2 21 7 21
6 0 10 -6 10 -14 0 -17 54 -16 71 1 8 8 18 9 31 2 24 -13 69 8 47 22 -10 6
-11 9 -1 9 6 0 12 6 12 13 0 18 38 39 61 32 12 -4 19 -15 19 -31 0 -13 5 -24
10 -24 6 0 10 18 10 40 0 22 -4 40 -10 40 -5 0 -10 7 -10 15 0 8 8 15 17 15
24 0 62 39 57 59 -5 13 -4 13 6 -1 6 -11 22 -18 38 -17 17 1 20 3 10 6 -14 4
-16 8 -8 24 7 12 7 25 1 37 -11 21 0 44 20 40 8 -2 16 -11 19 -21 5 -17 7 -17
28 3 14 13 31 20 42 17 12 -3 20 1 22 10 2 9 15 17 30 19 22 2 29 -2 34 -22 3
-13 13 -24 21 -24 13 0 13 3 2 16 -10 13 -10 17 2 25 17 11 69 8 69 -4 0 -4 5
-5 10 -2 6 3 10 15 10 26 0 14 -7 19 -24 19 -14 0 -28 -4 -31 -10 -8 -13 -67
-8 -83 7 -15 14 -6 37 10 27 14 -9 103 -9 117 0 18 11 31 -3 31 -34 0 -38 18
-48 26 -15 4 16 13 25 25 25 11 0 19 7 19 16 0 12 7 15 25 12 14 -3 23 -1 22
6 -1 6 14 11 33 12 66 3 70 4 67 17 -1 7 15 14 43 18 58 7 90 19 90 32 0 6 2
8 5 5 11 -11 -8 -38 -26 -38 -10 0 -19 -7 -19 -15 0 -9 9 -15 24 -15 13 0 29
7 36 15 7 8 25 15 41 15 19 0 29 5 29 15 0 18 20 20 20 3 0 -7 9 -2 20 12 13
17 20 20 20 10 0 -13 2 -13 9 -1 6 9 29 15 61 16 32 1 55 7 61 16 7 12 12 12
29 1 17 -10 26 -10 55 3 18 9 46 15 62 12 23 -3 22 -4 -9 -6 -39 -1 -50 -14
-22 -25 31 -12 81 -6 97 12 13 14 32 17 124 16 130 -2 123 -2 123 -14 0 -6 -8
-10 -17 -8 -12 2 -21 -8 -29 -32 -14 -42 -3 -60 26 -42 11 6 24 12 30 12 11 0
50 36 50 46 0 3 6 11 13 19 15 14 83 21 297 30 359 16 961 93 1060 137 14 6
36 12 50 14 55 7 112 22 123 33 8 8 5 11 -12 11 -12 0 -19 4 -16 10 3 6 15 10
26 10 10 0 19 -4 19 -10 0 -5 14 -10 30 -10 17 0 30 5 30 10 0 6 -9 10 -20 10
-19 0 -24 14 -23 58 1 6 -5 12 -13 12 -8 0 -14 -7 -14 -16 0 -8 -4 -13 -9 -10
-5 4 -7 -3 -4 -14 3 -11 0 -20 -6 -20 -6 0 -11 13 -11 29 0 27 -3 29 -51 33
-28 3 -65 2 -82 -2 -31 -8 -30 -8 13 -10 35 -1 40 -3 25 -10 -14 -6 -16 -9 -5
-10 8 -2 19 -2 24 -1 6 1 20 0 33 -4 42 -10 15 -23 -47 -22 -48 1 -57 4 -45
13 23 17 19 21 -29 27 -38 6 -91 -2 -136 -20 -8 -3 -30 -5 -47 -4 -18 2 -33
-2 -33 -8 0 -6 -7 -11 -16 -11 -9 0 -12 5 -8 12 4 6 3 9 -2 6 -9 -6 -228 -34
-334 -43 -30 -3 -98 -9 -150 -15 -153 -17 -800 -24 -1030 -11 -728 41 -1282
186 -1368 358 -18 36 -20 78 -25 695 -3 373 -2 660 3 663 8 5 332 14 1365 35
297 7 547 14 555 17 8 3 66 5 128 3 76 -1 118 2 128 10 10 9 14 9 14 1 0 -6 7
-11 16 -11 8 0 13 4 10 9 -3 5 10 11 30 13 19 2 37 1 40 -4 3 -4 17 -2 31 5
21 9 27 9 31 -1 2 -6 11 -12 20 -12 15 0 15 2 2 10 -13 8 -13 10 2 10 9 0 18
-6 20 -12 3 -9 9 -8 21 4 21 20 21 28 3 28 -8 0 -17 10 -19 23 -3 17 -5 16 -6
-8 -1 -23 -3 -27 -11 -15 -8 12 -11 13 -19 1 -7 -11 -9 -11 -14 0 -3 8 -6 10
-6 4 -1 -11 -316 -13 -326 -3 -4 3 -9 112 -13 242 -6 206 -5 237 8 240 8 3 44
7 80 11 58 5 112 22 85 26 -5 1 6 5 25 9 24 5 4 8 -68 9 -66 1 -101 5 -97 11
4 6 -7 10 -24 10 -17 0 -31 -4 -31 -10 0 -5 -7 -10 -16 -10 -8 0 -12 4 -9 10
3 5 0 7 -8 4 -8 -3 -18 -1 -22 5 -9 16 -31 13 -50 -5 -14 -15 -23 -15 -73 -4
-96 21 -105 25 -109 49 -2 12 3 29 11 36 18 18 10 60 -9 45 -9 -7 -16 -6 -24
4 -15 18 -51 17 -44 -1 3 -8 -7 -12 -36 -10 -23 1 -41 4 -41 8 0 4 -7 10 -16
13 -12 4 -14 1 -9 -14 5 -15 3 -18 -10 -14 -9 4 -14 12 -11 19 2 6 0 18 -4 26
-7 11 -12 10 -28 -4 -10 -9 -28 -17 -40 -17 -11 0 -23 -4 -26 -9 -9 -14 -56 0
-69 20 -15 23 -33 24 -45 2 -7 -12 -24 -17 -58 -17 -58 -1 -96 29 -98 75 -1
16 -2 29 -3 29 -2 0 -19 -15 -39 -34 -79 -75 -189 -102 -215 -54 -13 23 -4 83
17 115 47 74 53 90 37 106 -22 22 -10 44 29 52 18 4 38 11 43 15 6 5 32 6 58
3 39 -5 53 -12 73 -39 24 -31 31 -49 33 -82 1 -10 5 -9 18 3 26 27 63 37 94
26 15 -5 31 -6 35 -3 4 4 4 -1 1 -10 -5 -13 -1 -18 13 -18 11 0 20 5 20 10 0
6 9 10 21 10 15 0 19 5 15 18 -4 13 -1 18 14 18 11 0 20 -4 20 -8 0 -4 11 -8
25 -8 14 0 25 -4 25 -10 0 -5 7 -10 15 -10 11 0 14 -7 9 -25 -4 -16 -2 -25 6
-25 7 0 10 7 6 16 -5 12 -2 15 9 10 10 -3 13 -2 10 5 -11 17 27 45 56 41 23
-3 26 0 27 27 0 17 5 38 11 48 10 17 10 17 11 -1 0 -18 1 -18 19 -2 28 25 41
12 41 -40 0 -24 3 -44 8 -44 4 0 22 10 41 21 30 18 32 22 18 30 -12 7 -16 23
-15 59 1 28 -4 56 -10 62 -9 9 -12 8 -12 -5 0 -13 -10 -17 -47 -18 -69 -2 -97
1 -108 12 -8 8 20 14 47 11 3 -1 11 5 18 13 6 7 17 12 24 9 7 -3 23 0 37 5 13
5 17 10 9 10 -9 1 -27 15 -42 31 -26 30 -27 30 -135 31 -219 1 -463 -1 -668
-7 -514 -15 -857 -19 -865 -9 -4 6 -10 389 -14 852 -7 891 -10 1023 -26 1054
-8 13 -7 25 0 40 l11 20 -743 -2 c-488 -1 -747 -5 -756 -12 -7 -5 -15 -7 -18
-4 -3 3 -17 2 -30 -3 -17 -7 -37 -5 -64 4 -22 7 -37 9 -34 4 4 -6 -2 -8 -15
-3 -16 5 -23 1 -30 -17 -5 -13 -5 -27 -1 -33 11 -14 9 -64 -3 -72 -5 -3 -14 1
-18 10 -7 11 -19 14 -43 10 -45 -7 -51 17 -19 73 l23 41 -71 2 c-62 2 -71 0
-65 -14z m71 -152 c0 -14 -6 -28 -14 -31 -10 -3 -12 0 -8 11 3 9 1 18 -6 21
-9 3 -8 8 3 15 22 16 26 14 25 -16z m1455 -213 c0 -5 -4 -10 -10 -10 -5 0 -10
5 -10 10 0 6 5 10 10 10 6 0 10 -4 10 -10z m-1340 -75 c0 -8 -4 -15 -10 -15
-5 0 -10 7 -10 15 0 8 5 15 10 15 6 0 10 -7 10 -15z m-170 -15 c0 -5 -4 -10
-9 -10 -6 0 -13 5 -16 10 -3 6 1 10 9 10 9 0 16 -4 16 -10z m20 -21 c0 -11 -4
-18 -10 -14 -5 3 -7 12 -3 20 7 21 13 19 13 -6z m146 -187 c-2 -35 -8 -68 -12
-72 -8 -8 -11 111 -5 185 6 62 22 -46 17 -113z m-136 -37 c-7 -8 -8 -20 -4
-27 6 -9 3 -9 -10 1 -11 9 -13 18 -7 24 5 5 7 15 4 23 -2 7 1 19 9 27 11 13
13 12 16 -10 2 -13 -2 -30 -8 -38z m3510 -1255 c0 -5 -18 -10 -40 -10 -22 0
-40 5 -40 10 0 6 18 10 40 10 22 0 40 -4 40 -10z m-27 -37 c-7 -2 -19 -2 -25
0 -7 3 -2 5 12 5 14 0 19 -2 13 -5z m-54 -80 c1 -14 -4 -21 -12 -17 -8 3 -11
18 -8 47 4 37 5 39 12 17 4 -14 7 -35 8 -47z m-1448 -76 c1 -7 1 -15 0 -19 -2
-15 16 -8 38 16 26 27 61 37 85 24 25 -14 19 -38 -10 -38 -15 0 -38 -12 -56
-30 -40 -40 -29 -51 12 -11 29 27 60 32 60 10 0 -21 18 -6 23 19 6 32 60 67
92 61 27 -6 32 -49 9 -66 -13 -9 -15 -16 -7 -24 7 -7 21 5 47 41 30 41 40 49
51 40 15 -13 10 -35 -13 -63 -8 -9 -13 -20 -9 -23 3 -3 22 17 42 45 20 28 43
51 51 51 23 0 27 -26 10 -61 -20 -39 -21 -60 -3 -34 15 19 37 13 37 -10 0 -7
-20 -40 -45 -73 -25 -33 -48 -74 -51 -91 -4 -17 -12 -31 -19 -31 -7 0 -33 -3
-59 -6 -45 -7 -46 -6 -46 20 0 24 2 25 20 16 26 -14 26 1 0 18 -26 16 -68 -3
-72 -32 -3 -19 -10 -21 -63 -21 l-60 0 -3 45 c-4 60 -22 77 -23 22 -2 -65 -3
-67 -24 -67 -17 0 -20 8 -23 47 -3 44 -4 47 -32 46 l-30 -1 25 -23 c43 -40 24
-78 -37 -72 -33 3 -38 24 -5 22 23 -1 21 8 -7 28 -22 16 -24 16 -35 -8 -21
-48 -114 -68 -172 -38 -33 17 -35 40 -6 58 16 9 22 7 34 -11 20 -30 46 -29 63
1 19 36 6 74 -27 78 -34 4 -46 38 -14 38 42 0 56 82 15 88 -14 2 -24 -5 -33
-24 -12 -27 -12 -27 -32 -8 -36 37 1 74 74 74 53 0 76 -11 89 -41 16 -36 21
-36 38 -3 26 48 97 63 101 21z m1476 -13 c-3 -3 -12 -4 -19 -1 -8 3 -5 6 6 6
11 1 17 -2 13 -5z m153 -16 c0 -13 -23 -5 -28 10 -2 7 2 10 12 6 9 -3 16 -11
16 -16z m-117 -275 c-13 -2 -33 -2 -45 0 -13 2 -3 4 22 4 25 0 35 -2 23 -4z
m-113 -17 c0 -2 -7 -7 -16 -10 -8 -3 -12 -2 -9 4 6 10 25 14 25 6z m58 -56
c-3 -16 -1 -30 4 -30 5 0 6 -5 2 -11 -11 -18 -23 12 -17 44 7 37 16 35 11 -3z
m108 -6 c-4 -14 -9 -24 -12 -21 -3 2 -2 17 2 31 3 15 9 25 11 22 3 -3 2 -17
-1 -32z m-33 -31 c-7 -2 -19 -2 -25 0 -7 3 -2 5 12 5 14 0 19 -2 13 -5z m232
-83 c89 -46 108 -171 37 -243 l-29 -29 36 -68 c23 -45 39 -64 44 -57 5 8 7 5
5 -8 -1 -11 1 -26 6 -33 12 -19 4 -23 -62 -29 l-60 -6 -24 39 c-13 22 -35 63
-49 91 -23 50 -41 62 -64 45 -5 -4 -10 -43 -10 -87 l0 -80 -56 -3 c-44 -2 -58
1 -62 12 -5 12 -10 310 -7 443 0 25 7 27 155 31 85 2 105 0 140 -18z m-350
-12 c7 -28 2 -65 -11 -78 -5 -5 -52 -10 -104 -12 l-95 -3 0 -40 0 -40 86 3
c51 2 89 0 93 -6 3 -5 3 -30 0 -56 l-7 -45 -85 -3 -85 -3 2 -82 c2 -74 0 -83
-19 -93 -13 -7 -37 -9 -60 -5 l-38 6 -7 182 c-4 100 -5 204 -3 232 4 62 7 63
190 64 135 1 138 1 143 -21z m-957 -42 c26 -25 27 -32 30 -145 4 -119 4 -119
-25 -151 -54 -61 -162 -49 -199 21 -24 48 -17 238 11 269 29 32 53 40 108 36
36 -2 56 -10 75 -30z m-270 -13 l3 -33 -55 -1 c-81 -2 -81 -2 -84 -26 -3 -21
0 -23 47 -23 79 0 108 -42 99 -141 -8 -76 -31 -94 -119 -94 -63 0 -73 3 -90
24 -26 31 -21 52 14 64 22 7 32 5 47 -8 32 -29 55 -16 58 33 4 48 -14 63 -51
44 -12 -6 -35 -13 -52 -14 l-30 -3 -5 95 c-3 52 -4 101 -2 108 3 9 31 12 111
10 l106 -3 3 -32z m-1143 -14 l30 -29 0 -120 c0 -116 -1 -120 -27 -146 -49
-49 -168 -41 -197 14 -16 30 -23 119 -15 189 6 57 11 72 36 95 49 46 124 45
173 -3z m-316 16 c47 -24 67 -99 56 -212 -6 -62 -11 -80 -33 -103 -55 -57
-163 -46 -197 20 -13 26 -16 55 -13 142 l3 110 35 29 c39 33 101 39 149 14z
m3158 -17 c-3 -7 -5 -2 -5 12 0 14 2 19 5 13 2 -7 2 -19 0 -25z m-3462 -158
l0 -175 -40 0 -40 0 -3 123 c-1 67 -6 122 -10 122 -5 0 -13 -5 -19 -11 -18
-18 -33 -1 -33 35 0 52 46 87 110 83 l35 -2 0 -175z m2296 119 l46 2 6 -77
c16 -189 4 -241 -65 -269 -48 -19 -117 -12 -151 15 -22 18 -22 18 -2 40 17 18
26 21 63 15 28 -4 48 -2 58 6 24 20 16 27 -30 22 -24 -3 -53 0 -65 7 -47 25
-67 140 -36 200 17 33 64 52 105 43 14 -3 46 -5 71 -4z m-1021 -48 c0 -40 0
-40 43 -43 39 -3 42 -5 42 -33 0 -27 -4 -31 -42 -39 -42 -9 -43 -10 -43 -47 0
-38 -1 -39 -34 -39 -36 0 -46 12 -46 55 0 20 -6 24 -37 27 -35 3 -38 6 -41 36
-3 28 0 32 22 32 43 0 56 10 56 44 0 41 5 46 47 46 32 0 33 -1 33 -39z m-341
13 c9 -8 1 -266 -9 -284 -29 -53 -116 -75 -185 -46 -39 17 -44 35 -16 60 17
15 25 16 54 7 40 -14 63 -7 70 20 4 16 2 19 -14 14 -48 -16 -82 -8 -111 24
-24 27 -28 39 -28 94 0 67 16 102 54 117 18 8 175 3 185 -6z m-31 -611 c2 -9
-10 -13 -42 -13 -46 0 -46 0 -46 -35 0 -21 5 -36 13 -36 6 -1 22 -2 34 -3 34
-2 23 -21 -12 -22 -29 0 -30 -2 -30 -45 l0 -44 39 -1 c22 0 42 -6 44 -13 3 -9
-13 -11 -59 -9 l-64 3 -3 109 c-1 61 1 112 7 115 18 12 114 6 119 -6z m169 2
c8 -22 -4 -30 -21 -16 -8 7 -25 11 -38 9 -18 -2 -23 -9 -23 -33 0 -25 5 -32
34 -41 19 -6 40 -19 48 -29 14 -20 17 -63 5 -81 -29 -44 -132 -46 -132 -2 0
19 1 19 30 1 37 -21 63 -10 68 30 3 22 -4 29 -40 48 -24 12 -46 27 -50 33 -16
23 -8 65 14 80 30 21 97 21 105 1z m-604 -100 c26 -58 47 -110 47 -115 0 -6
-9 -10 -19 -10 -13 0 -24 13 -35 40 -15 37 -19 40 -55 40 -38 0 -41 -2 -61
-47 -14 -33 -24 -43 -31 -36 -7 7 -1 31 22 79 17 38 40 88 50 112 10 23 22 42
26 42 4 0 29 -47 56 -105z m129 57 c-2 -23 0 -42 5 -42 5 0 29 20 53 45 40 41
70 57 70 38 0 -4 -21 -29 -47 -55 l-47 -48 52 -53 c57 -58 62 -67 33 -67 -11
0 -39 22 -63 50 -24 27 -47 50 -51 50 -5 0 -7 -19 -6 -43 3 -45 -8 -74 -22
-60 -4 4 -8 53 -9 108 -2 133 -2 127 18 123 14 -3 16 -12 14 -46z m159 -308
c25 -23 24 -62 -3 -91 -18 -20 -19 -23 -5 -23 24 0 41 -42 33 -84 -6 -30 -13
-37 -51 -52 -47 -18 -105 -15 -131 7 -13 10 -12 15 3 31 17 19 17 19 34 -3 24
-32 65 -20 74 21 8 36 -5 55 -40 64 -30 8 -32 22 -4 31 26 9 42 50 29 76 -14
25 -40 24 -47 -1 -6 -23 -38 -27 -46 -6 -6 14 15 38 43 49 26 11 91 0 111 -19z
m230 13 c57 -44 61 -190 7 -243 -35 -35 -101 -37 -136 -4 -51 48 -52 182 -1
232 22 22 37 28 71 28 24 0 50 -6 59 -13z m-593 -3 c24 -7 30 -29 10 -37 -7
-2 -21 2 -30 11 -23 19 -48 1 -48 -34 0 -17 -10 -31 -32 -44 -41 -25 -54 -13
-38 34 20 62 71 87 138 70z m56 -60 c9 -24 7 -137 -3 -153 -6 -9 -18 -11 -35
-7 -25 6 -26 9 -26 79 0 43 5 78 12 85 17 17 45 15 52 -4z m-137 -100 c-8 -8
-37 8 -37 21 0 22 35 23 38 2 2 -10 2 -21 -1 -23z m-9 -20 c12 -8 22 -26 22
-39 0 -28 17 -36 48 -22 28 13 57 -8 32 -23 -20 -13 -87 -12 -112 1 -18 10
-48 65 -48 89 0 15 32 12 58 -6z m712 -221 c0 -41 -16 -50 -44 -24 -28 26 -36
26 -36 1 0 -11 -4 -20 -10 -20 -5 0 -10 20 -10 45 0 33 4 45 14 45 8 0 18 -4
21 -10 3 -5 15 -15 26 -21 16 -8 20 -7 18 3 -1 7 -1 20 0 28 3 29 21 -12 21
-47z m65 47 c3 -5 -1 -10 -9 -10 -22 0 -20 -13 4 -28 17 -10 18 -16 10 -32
-11 -21 -60 -28 -60 -9 0 6 7 9 15 5 8 -3 15 -1 15 5 0 5 -7 12 -15 15 -18 7
-20 50 -2 57 20 9 35 8 42 -3z m-515 -50 c0 -40 -11 -70 -26 -70 -15 0 -15 85
0 109 11 18 26 -4 26 -39z m87 -7 c7 -32 23 -29 23 5 0 15 5 34 10 42 8 13 11
12 24 -5 9 -11 16 -24 16 -30 0 -5 8 3 16 18 21 39 38 29 42 -26 3 -46 -12
-65 -24 -32 -6 14 -8 13 -20 -2 -12 -17 -14 -17 -28 2 -12 16 -15 17 -16 4 0
-21 -54 -23 -71 -3 -10 12 -13 12 -24 -3 -20 -27 -29 -8 -15 29 22 54 32 63
47 41 8 -10 16 -28 20 -40z m185 20 c4 -53 32 -52 36 0 2 24 8 37 15 34 14 -4
10 -66 -5 -84 -13 -16 -50 -17 -66 -1 -18 18 -16 88 2 88 10 0 16 -13 18 -37z
m-372 -17 c0 -41 -2 -44 -30 -48 -38 -6 -40 -4 -40 49 0 43 0 43 35 43 35 0
35 0 35 -44z m4220 -726 c0 -5 -4 -10 -10 -10 -5 0 -10 5 -10 10 0 6 5 10 10
10 6 0 10 -4 10 -10z m-2155 -280 c3 -5 -1 -10 -9 -10 -9 0 -16 5 -16 10 0 6
4 10 9 10 6 0 13 -4 16 -10z m-865 -166 c0 -8 -4 -12 -10 -9 -5 3 -10 10 -10
16 0 5 5 9 10 9 6 0 10 -7 10 -16z m-545 -32 c-3 -3 -11 0 -18 7 -9 10 -8 11
6 5 10 -3 15 -9 12 -12z m69 -28 c5 -14 4 -15 -9 -4 -17 14 -19 20 -6 20 5 0
12 -7 15 -16z m-73 -11 c12 -15 12 -16 -4 -10 -10 4 -34 7 -53 7 -19 0 -34 5
-34 10 0 17 76 12 91 -7z m69 -31 c0 -4 -9 -13 -21 -20 -19 -12 -19 -11 -9 8
10 19 30 28 30 12z m507 -8 c-3 -3 -12 -4 -19 -1 -8 3 -5 6 6 6 11 1 17 -2 13
-5z m-175 -42 c-7 -2 -12 -10 -12 -18 0 -8 -4 -14 -10 -14 -15 0 -12 17 7 40
12 14 19 16 22 8 2 -6 -1 -14 -7 -16z m-61 -5 c-1 -12 -15 -9 -19 4 -3 6 1 10
8 8 6 -3 11 -8 11 -12z m-411 -12 c0 -8 -4 -15 -10 -15 -5 0 -7 7 -4 15 4 8 8
15 10 15 2 0 4 -7 4 -15z m-40 -21 c0 -2 -9 -4 -21 -4 -11 0 -18 4 -14 10 5 8
35 3 35 -6z m513 -49 c-7 -21 -13 -19 -13 6 0 11 4 18 10 14 5 -3 7 -12 3 -20z
m-1849 -3060 c4 -10 -1 -15 -14 -15 -20 0 -26 11 -13 23 10 11 20 8 27 -8z
m186 -94 c0 -6 -4 -13 -10 -16 -5 -3 -10 1 -10 9 0 9 5 16 10 16 6 0 10 -4 10
-9z m-208 -16 c0 -5 -5 -11 -11 -13 -6 -2 -11 4 -11 13 0 9 5 15 11 13 6 -2
11 -8 11 -13z m6737 -177 l29 -63 -5 63 c-3 39 -1 62 5 62 17 0 20 -10 27
-118 7 -98 7 -104 -11 -100 -12 2 -26 22 -39 58 l-20 55 -3 -57 c-3 -53 -17
-77 -27 -45 -7 24 -16 188 -10 197 13 21 27 8 54 -52z m179 50 c-3 -7 -17 -14
-31 -16 -22 -3 -27 -8 -27 -32 0 -23 5 -29 25 -32 31 -4 34 -22 5 -26 -15 -3
-20 -11 -20 -32 0 -24 5 -29 28 -32 40 -4 35 -32 -7 -36 -18 -2 -38 1 -44 7
-10 10 -26 198 -18 207 2 2 24 4 49 4 30 0 42 -4 40 -12z m132 -3 c0 -8 -7
-15 -16 -15 -15 0 -16 -11 -11 -90 3 -49 2 -92 -3 -95 -17 -11 -30 34 -30 105
0 65 -2 71 -25 82 -40 18 -29 28 30 28 42 0 55 -3 55 -15z m126 -35 c8 -58 24
-67 24 -12 0 74 35 82 46 11 10 -58 24 -58 24 1 0 43 3 51 17 48 9 -2 16 -5
16 -8 0 -3 -4 -49 -8 -103 -6 -82 -10 -98 -23 -95 -11 2 -21 24 -31 63 -16 66
-18 64 -23 -10 -2 -36 -8 -51 -19 -53 -13 -2 -21 17 -38 90 -25 110 -26 118
-6 118 10 0 16 -16 21 -50z m-96 -245 c0 -9 -7 -18 -15 -21 -21 -8 -19 -19 10
-50 l24 -26 -6 51 c-5 41 -3 52 11 57 27 11 46 -15 47 -65 1 -43 1 -44 11 -18
7 18 17 27 32 27 22 0 24 -5 30 -89 7 -97 3 -121 -24 -121 -23 0 -34 27 -15
37 11 7 10 12 -5 31 -18 22 -19 22 -25 2 -11 -36 -47 -20 -58 25 -3 15 -5 13
-6 -8 -1 -35 -29 -47 -48 -21 -16 21 -13 50 5 47 7 -2 12 6 12 17 0 11 -7 20
-15 20 -9 0 -15 10 -16 28 0 15 -2 38 -4 52 -3 33 2 40 31 40 15 0 24 -6 24
-15z m-323 -107 c0 -51 -2 -75 -4 -53 -2 22 -8 62 -13 88 -10 48 -6 72 9 62 5
-2 8 -46 8 -97z m63 76 c13 -32 13 -144 0 -164 -19 -30 -34 8 -38 100 -4 79
-2 90 12 90 9 0 21 -12 26 -26z m60 6 c14 -27 9 -172 -7 -177 -20 -7 -38 93
-34 180 1 23 28 22 41 -3z m-5894 -30 c18 -12 47 -44 64 -73 18 -29 51 -69 74
-90 41 -37 41 -37 12 -30 -17 3 -40 17 -53 31 -15 16 -23 20 -23 11 -1 -10 -3
-10 -10 2 -5 9 -26 20 -46 24 -83 15 -200 123 -136 126 14 0 14 2 -3 9 -15 6
-5 9 34 9 38 1 64 -5 87 -19z m5966 -85 c4 -88 1 -105 -18 -105 -16 0 -19 16
-3 25 7 5 3 14 -10 26 -16 15 -21 32 -21 73 0 59 3 66 30 59 15 -4 19 -17 22
-78z m48 61 c0 -8 5 -16 12 -18 8 -3 8 -12 1 -33 -11 -35 -33 -45 -33 -16 0
12 -4 21 -10 21 -5 0 -10 7 -10 15 0 8 5 15 10 15 6 0 10 7 10 15 0 8 5 15 10
15 6 0 10 -6 10 -14z m-5508 -130 c8 -8 23 -15 33 -17 27 -6 30 -27 3 -31 -13
-2 -23 -7 -23 -13 0 -21 -17 -36 -34 -30 -10 3 -24 -1 -31 -10 -13 -15 -5 -20
28 -16 6 1 12 -5 12 -13 0 -11 -8 -14 -32 -11 -37 5 -56 -4 -37 -16 10 -6 8
-9 -8 -9 -24 0 -31 14 -13 25 8 5 7 11 -1 21 -9 11 -8 15 5 20 9 3 16 11 15
18 -5 40 2 55 29 58 19 2 27 8 26 21 -2 21 10 22 28 3z m5565 -191 c5 -82 4
-97 -8 -93 -10 3 -15 25 -17 74 -2 47 -8 71 -18 77 -7 4 -14 13 -14 19 0 15
33 38 43 29 4 -4 10 -51 14 -106z m113 101 c0 -8 -10 -16 -22 -18 -32 -4 -35
-36 -5 -47 42 -16 49 -120 10 -135 -20 -8 -59 27 -48 44 5 8 10 9 18 1 19 -19
28 -12 25 22 -2 26 -7 31 -25 29 -19 -3 -21 3 -25 48 -1 27 -1 55 0 60 6 16
72 12 72 -4z m101 -2 c15 -19 20 -148 7 -176 -13 -27 -57 -23 -62 5 -10 45
-17 167 -11 177 10 16 51 12 66 -6z m-356 -104 c-3 -5 -17 -10 -30 -10 -13 0
-27 5 -30 10 -4 6 8 10 30 10 22 0 34 -4 30 -10z m-2 -46 c-2 -4 -12 -8 -23
-7 -33 2 -36 3 -21 12 17 11 47 7 44 -5z m-4158 -176 c-4 -9 1 -20 11 -26 24
-13 5 -19 -36 -11 -22 4 -27 7 -12 8 34 2 26 21 -10 22 -18 1 -39 1 -45 0 -7
-1 -10 4 -8 11 3 8 24 13 55 13 42 0 49 -2 45 -17z m-175 -28 c0 -5 -2 -10 -4
-10 -3 0 -8 5 -11 10 -3 6 -1 10 4 10 6 0 11 -4 11 -10z"/>
<path d="M2255 7940 c-3 -5 -1 -10 4 -10 6 0 11 5 11 10 0 6 -2 10 -4 10 -3 0
-8 -4 -11 -10z"/>
<path d="M2003 7897 c-33 -11 -41 -21 -24 -32 5 -3 22 6 38 20 15 13 26 24 23
23 -3 0 -20 -6 -37 -11z"/>
<path d="M1921 7891 c0 -8 -8 -19 -18 -26 -15 -11 -14 -14 6 -34 14 -14 29
-20 42 -16 24 8 24 17 0 32 -11 7 -21 23 -24 35 -2 13 -5 17 -6 9z"/>
<path d="M2240 7880 c0 -5 5 -10 11 -10 5 0 7 5 4 10 -3 6 -8 10 -11 10 -2 0
-4 -4 -4 -10z"/>
<path d="M2035 7841 c-6 -5 -19 -11 -30 -14 -11 -3 19 -5 68 -4 81 1 106 8 73
20 -8 3 -29 0 -47 -6 -25 -9 -33 -9 -36 1 -5 14 -15 15 -28 3z"/>
<path d="M2193 7843 c-7 -3 -13 -9 -13 -14 0 -12 37 -12 44 0 7 11 -14 20 -31
14z"/>
<path d="M2287 7833 c-20 -12 -17 -13 24 -7 49 6 72 -7 50 -29 -15 -15 -14
-27 4 -27 10 0 15 10 15 28 0 15 4 32 9 38 15 14 -76 12 -102 -3z"/>
<path d="M2156 7791 c-3 -5 3 -11 14 -14 13 -3 20 0 20 9 0 15 -26 19 -34 5z"/>
<path d="M2168 7743 c-24 -6 -23 -23 2 -23 11 0 20 7 20 15 0 8 -1 14 -2 14
-2 -1 -11 -3 -20 -6z"/>
<path d="M3644 7366 c-3 -8 -4 -29 -2 -47 3 -33 4 -34 48 -30 25 1 53 7 62 12
23 12 23 41 0 62 -23 21 -100 23 -108 3z"/>
<path d="M2397 7364 c-4 -4 -7 -49 -7 -99 0 -70 4 -96 15 -105 12 -10 18 -10
30 0 13 10 15 32 13 109 -3 88 -5 96 -23 99 -12 2 -24 0 -28 -4z"/>
<path d="M977 7313 c-11 -64 -8 -148 6 -167 10 -13 20 -16 36 -11 21 6 22 11
19 108 -3 102 -3 102 -29 105 -23 3 -27 -1 -32 -35z"/>
<path d="M691 7336 c-8 -9 -11 -47 -9 -107 3 -92 4 -94 27 -94 19 0 26 7 33
30 8 31 3 159 -7 175 -9 14 -31 12 -44 -4z"/>
<path d="M2682 7268 c-27 -27 -11 -88 23 -88 26 0 37 27 26 68 -8 30 -30 39
-49 20z"/>
<path d="M1274 7252 c-17 -11 -24 -51 -14 -78 11 -29 45 -32 60 -5 27 52 -5
111 -46 83z"/>
<path d="M862 6615 c-10 -21 -9 -27 3 -31 8 -4 22 -4 30 0 12 4 13 10 3 31 -6
14 -14 25 -18 25 -4 0 -12 -11 -18 -25z"/>
<path d="M1380 6331 c-16 -30 -13 -174 4 -197 12 -15 17 -17 28 -6 14 14 24
156 14 197 -8 30 -31 33 -46 6z"/>
<path d="M6916 882 c1 -20 2 -50 3 -66 1 -17 5 -26 9 -20 9 10 3 124 -6 124
-4 0 -6 -17 -6 -38z"/>
<path d="M6980 855 c0 -38 3 -65 7 -62 7 8 5 119 -3 126 -2 2 -4 -26 -4 -64z"/>
<path d="M7043 835 c0 -22 2 -30 4 -17 2 12 2 30 0 40 -3 9 -5 -1 -4 -23z"/>
<path d="M7353 574 c2 -36 8 -68 11 -71 14 -14 17 9 11 71 -10 88 -29 88 -22
0z"/>
<path d="M7425 10041 c-3 -12 -4 -34 -1 -49 5 -24 13 -136 31 -452 3 -47 11
-129 18 -182 8 -54 15 -184 16 -290 1 -106 4 -195 7 -197 8 -9 4 507 -6 614
-5 61 -11 139 -14 175 -14 203 -30 377 -36 389 -6 11 -9 9 -15 -8z"/>
<path d="M3573 9698 c-10 -18 -18 -40 -18 -48 0 -8 -8 -16 -19 -18 -10 -2 -16
0 -12 6 5 9 -144 24 -154 15 -9 -8 23 -20 41 -16 11 3 19 0 19 -6 0 -7 -4 -9
-10 -6 -5 3 -10 2 -10 -3 0 -6 14 -19 31 -29 39 -26 102 -101 129 -158 28 -57
40 -65 39 -23 0 27 -2 29 -8 13 -11 -26 -20 35 -24 155 -2 89 6 126 26 113 9
-5 9 -3 0 9 -7 8 -10 18 -6 21 3 4 3 7 0 7 -4 0 -14 -15 -24 -32z"/>
<path d="M2988 9655 c-51 -19 -144 -84 -195 -137 -86 -89 -133 -245 -113 -375
26 -163 133 -292 301 -365 62 -26 87 -31 154 -32 84 -1 129 5 161 22 10 5 33
16 49 23 17 7 41 23 55 35 60 53 137 47 200 -16 21 -21 41 -36 44 -32 9 9 7
62 -3 62 -21 0 -32 91 -29 243 l3 157 -105 0 c-58 0 -136 2 -174 6 -48 4 -72
2 -80 -6 -8 -10 -5 -11 14 -7 20 4 31 -3 55 -31 29 -35 30 -38 33 -161 3 -97
0 -135 -12 -163 -15 -36 -71 -88 -94 -88 -7 0 -11 -5 -9 -11 3 -17 -46 -28
-89 -19 -54 10 -94 28 -94 40 0 5 -6 10 -13 10 -24 0 -73 177 -85 310 -10 106
10 332 33 385 7 17 18 45 25 62 19 50 41 70 78 70 19 0 37 4 40 10 4 6 16 13
27 16 12 3 4 5 -18 6 -21 0 -48 -4 -60 -10 -16 -9 -22 -9 -25 0 -5 14 -27 13
-74 -4z"/>
<path d="M3858 9577 c-56 -30 -74 -92 -47 -158 23 -58 147 -77 178 -27 7 11 9
18 4 15 -5 -3 -9 17 -9 45 0 35 2 44 8 29 11 -31 17 -26 15 13 -2 28 -7 36
-26 41 -20 5 -22 8 -10 16 11 7 11 9 -4 9 -10 0 -15 5 -12 10 3 6 -4 10 -17
10 -13 0 -28 4 -33 9 -6 4 -26 0 -47 -12z"/>
<path d="M4397 9533 c-4 -3 -7 -13 -7 -22 1 -13 3 -13 11 2 11 19 8 33 -4 20z"/>
<path d="M3021 9498 c-10 -29 -24 -105 -18 -98 7 7 36 120 31 120 -3 0 -8 -10
-13 -22z"/>
<path d="M4335 9459 l-40 -42 33 19 c17 10 32 24 32 32 0 7 5 10 10 7 6 -3 10
1 10 9 0 22 -1 21 -45 -25z"/>
<path d="M2990 9290 c-3 -128 0 -233 8 -242 4 -4 6 57 4 135 -3 184 -8 227
-12 107z"/>
<path d="M4197 9363 c-13 -3 -17 -11 -13 -26 2 -12 6 -95 7 -184 2 -129 5
-160 16 -156 16 6 19 153 2 153 -6 0 -7 5 -2 13 6 9 15 211 9 206 0 -1 -9 -3
-19 -6z"/>
<path d="M3815 9240 c-3 -5 -3 -99 0 -209 4 -110 4 -210 0 -221 -4 -12 -18
-25 -31 -30 -28 -11 -33 -34 -5 -25 11 3 53 6 95 7 42 1 76 6 76 11 0 5 7 7
15 3 9 -3 15 0 15 9 0 8 -6 12 -14 9 -16 -6 -27 18 -17 35 4 7 14 11 21 9 7
-2 15 4 17 12 3 11 2 12 -4 2 -7 -9 -12 -7 -20 10 -17 35 -22 68 -11 68 7 0 6
5 -1 14 -6 7 -9 21 -5 30 5 13 -1 16 -27 17 -19 1 -26 3 -16 6 9 2 17 11 17
20 0 8 9 17 20 20 11 3 20 9 20 12 0 16 -13 19 -41 11 -16 -5 -29 -6 -30 -2
-6 37 -5 72 2 72 14 0 11 20 -6 36 -8 9 -19 12 -25 9 -6 -4 -10 6 -10 22 0 15
4 23 8 17 6 -9 52 -27 52 -20 0 2 -8 12 -17 23 -21 23 -69 38 -78 23z m125
-389 c0 -5 -7 -12 -16 -15 -24 -9 -28 -7 -14 9 14 17 30 20 30 6z"/>
<path d="M3949 9238 c0 -2 -3 -18 -5 -35 -5 -30 -3 -33 20 -33 29 0 33 12 11
30 -8 7 -12 17 -8 23 4 6 9 3 14 -9 7 -17 8 -17 8 4 1 16 -5 22 -19 22 -11 0
-20 -1 -21 -2z"/>
<path d="M3940 9136 c0 -9 0 -19 -1 -23 0 -4 4 -9 10 -11 14 -5 14 35 1 43 -5
3 -10 -1 -10 -9z"/>
<path d="M3002 9000 c0 -14 3 -34 8 -45 l9 -20 -1 20 c0 11 -4 31 -8 45 l-8
25 0 -25z"/>
<path d="M4200 8974 c-11 -12 -10 -18 3 -32 16 -15 17 -14 17 16 0 36 -2 38
-20 16z"/>
<path d="M4200 8889 c0 -20 4 -28 12 -23 7 5 9 1 6 -12 -4 -14 0 -20 13 -21
10 -1 22 3 25 9 5 7 2 9 -8 5 -12 -4 -17 4 -22 34 -7 46 -26 52 -26 8z"/>
<path d="M3050 8851 c0 -5 5 -13 10 -16 6 -3 10 -2 10 4 0 5 -4 13 -10 16 -5
3 -10 2 -10 -4z"/>
<path d="M3080 8811 c0 -5 7 -12 16 -15 24 -9 28 -7 14 9 -14 17 -30 20 -30 6z"/>
<path d="M4290 8790 c0 -5 5 -10 10 -10 6 0 10 5 10 10 0 6 -4 10 -10 10 -5 0
-10 -4 -10 -10z"/>
<path d="M3135 8780 c3 -6 20 -10 37 -10 38 0 34 5 -10 13 -21 4 -31 3 -27 -3z"/>
<path d="M3687 8194 c-4 -4 -7 -14 -7 -23 0 -11 3 -12 11 -4 6 6 10 16 7 23
-2 6 -7 8 -11 4z"/>
<path d="M3646 8161 c-4 -7 -5 -15 -2 -18 9 -9 19 4 14 18 -4 11 -6 11 -12 0z"/>
<path d="M3740 8080 c0 -5 7 -10 15 -10 8 0 15 5 15 10 0 6 -7 10 -15 10 -8 0
-15 -4 -15 -10z"/>
<path d="M3008 7943 c-31 -7 -141 -183 -125 -199 12 -12 63 17 114 64 55 51
78 86 69 107 -7 18 -37 32 -58 28z"/>
<path d="M3610 7931 c0 -6 4 -13 10 -16 6 -3 7 1 4 9 -7 18 -14 21 -14 7z"/>
<path d="M3257 7848 c-9 -31 -2 -33 11 -3 6 14 8 25 3 25 -5 0 -11 -10 -14
-22z"/>
<path d="M3416 7835 c-2 -7 1 -18 8 -25 19 -15 28 11 11 27 -10 9 -14 9 -19
-2z"/>
<path d="M3220 7795 c-7 -8 -28 -15 -46 -15 -36 0 -40 -6 -23 -30 7 -11 12
-12 15 -3 3 7 11 10 17 7 11 -4 67 39 67 51 0 10 -18 4 -30 -10z"/>
<path d="M3315 7760 c3 -5 13 -10 21 -10 8 0 12 5 9 10 -3 6 -13 10 -21 10 -8
0 -12 -4 -9 -10z"/>
<path d="M3635 7731 c-3 -6 3 -9 14 -8 11 0 17 5 15 9 -7 11 -22 10 -29 -1z"/>
<path d="M3700 7670 c0 -5 6 -10 14 -10 8 0 18 5 21 10 3 6 -3 10 -14 10 -12
0 -21 -4 -21 -10z"/>
<path d="M3660 7605 c0 -8 5 -15 10 -15 6 0 10 7 10 15 0 8 -4 15 -10 15 -5 0
-10 -7 -10 -15z"/>
<path d="M4243 7543 c15 -2 27 -9 27 -14 0 -5 7 -9 16 -9 14 0 14 2 0 15 -8 8
-27 14 -43 14 l-28 -2 28 -4z"/>
<path d="M4140 7520 c0 -5 4 -10 9 -10 6 0 13 5 16 10 3 6 -1 10 -9 10 -9 0
-16 -4 -16 -10z"/>
<path d="M4328 7503 c7 -3 16 -2 19 1 4 3 -2 6 -13 5 -11 0 -14 -3 -6 -6z"/>
<path d="M4287 7400 c-11 -13 -29 -20 -51 -20 -19 0 -37 -6 -40 -12 -3 -9 -9
-8 -20 5 -19 25 -60 14 -53 -14 3 -10 1 -19 -4 -19 -5 0 -9 10 -10 23 0 12 -3
16 -6 9 -2 -6 -8 -10 -13 -7 -11 7 -19 -30 -10 -45 4 -7 13 -9 20 -5 6 4 34 9
63 11 38 2 59 -2 84 -17 32 -20 43 -39 23 -39 -5 0 -10 -4 -10 -10 0 -5 6 -9
12 -7 8 1 15 -14 19 -38 l5 -40 6 35 c4 32 5 30 6 -13 1 -27 -3 -58 -9 -69 -9
-16 -8 -19 2 -13 9 6 11 0 6 -23 -4 -17 -2 -34 3 -37 6 -4 10 9 10 29 0 24 5
36 14 36 10 0 14 12 14 37 l0 38 -12 -30 c-14 -33 -13 -36 -21 105 -4 79 -5
85 -13 72 -7 -9 -13 -8 -27 8 -18 19 -18 20 3 20 12 0 22 6 23 13 0 6 4 3 9
-8 7 -17 9 -15 9 13 1 37 -7 40 -32 12z m13 -90 c0 -5 -2 -10 -4 -10 -3 0 -8
5 -11 10 -3 6 -1 10 4 10 6 0 11 -4 11 -10z"/>
<path d="M4331 7364 c0 -11 3 -14 6 -6 3 7 2 16 -1 19 -3 4 -6 -2 -5 -13z"/>
<path d="M4332 7265 c0 -16 2 -22 5 -12 2 9 2 23 0 30 -3 6 -5 -1 -5 -18z"/>
<path d="M4680 7254 c0 -8 5 -12 10 -9 6 3 10 10 10 16 0 5 -4 9 -10 9 -5 0
-10 -7 -10 -16z"/>
<path d="M4083 7166 c2 -39 27 -65 27 -29 1 17 1 17 14 1 7 -10 16 -15 19 -11
4 3 38 7 77 8 39 1 73 5 77 9 15 14 -14 21 -93 21 -46 0 -84 3 -84 8 0 4 13 7
29 7 17 0 33 5 36 10 10 16 -62 12 -79 -5 -13 -13 -15 -13 -19 3 -3 9 -5 -1
-4 -22z"/>
<path d="M4200 7190 c0 -5 4 -10 9 -10 6 0 13 5 16 10 3 6 -1 10 -9 10 -9 0
-16 -4 -16 -10z"/>
<path d="M4685 7020 c-3 -5 -1 -10 4 -10 6 0 11 5 11 10 0 6 -2 10 -4 10 -3 0
-8 -4 -11 -10z"/>
<path d="M4540 6980 c0 -5 4 -10 9 -10 6 0 13 5 16 10 3 6 -1 10 -9 10 -9 0
-16 -4 -16 -10z"/>
<path d="M3020 6751 c0 -5 21 -11 48 -13 48 -6 82 -18 115 -40 14 -11 19 -10
27 2 14 22 2 28 -85 45 -93 17 -105 18 -105 6z"/>
<path d="M3919 6715 c-1 -44 -2 -46 -9 -20 -6 23 -8 16 -9 -35 0 -36 3 -60 7
-53 4 6 7 -70 7 -170 l0 -182 28 -2 c25 -2 28 1 23 21 -3 12 -9 116 -12 231
-5 142 -12 217 -21 235 -12 24 -13 23 -14 -25z"/>
<path d="M2935 6741 c-43 -11 -111 -47 -136 -74 -52 -54 -76 -155 -59 -243 16
-82 53 -132 124 -169 54 -27 68 -30 155 -29 61 0 117 6 154 17 l57 18 0 62 c0
34 -3 79 -6 100 -6 31 -11 37 -31 37 -24 0 -24 0 -22 -97 l2 -97 -34 -15 c-46
-19 -165 -18 -209 1 -85 37 -133 122 -134 238 -1 134 56 215 174 246 48 14 17
17 -35 5z"/>
<path d="M3333 6734 c-3 -9 -3 -93 -1 -187 4 -123 10 -182 21 -208 55 -130
302 -142 384 -18 28 42 28 43 31 232 3 152 1 188 -10 185 -9 -3 -12 -24 -10
-74 1 -38 5 -76 8 -85 7 -26 -15 -196 -32 -238 -8 -21 -29 -49 -47 -62 -27
-20 -43 -24 -112 -24 -89 0 -117 13 -150 70 -20 35 -34 164 -35 311 0 94 -2
102 -21 107 -13 3 -22 0 -26 -9z"/>
<path d="M4470 6725 c0 -8 4 -15 10 -15 5 0 7 7 4 15 -4 8 -8 15 -10 15 -2 0
-4 -7 -4 -15z"/>
<path d="M4566 6503 c-11 -12 -6 -33 9 -33 8 0 21 -12 29 -27 19 -35 20 -23 2
21 -15 36 -29 50 -40 39z"/>
<path d="M4336 6473 c-6 -14 -5 -15 5 -6 7 7 10 15 7 18 -3 3 -9 -2 -12 -12z"/>
<path d="M4785 6460 c-3 -5 -1 -18 4 -27 9 -16 10 -14 11 10 0 28 -5 34 -15
17z"/>
<path d="M4811 6444 c0 -11 3 -14 6 -6 3 7 2 16 -1 19 -3 4 -6 -2 -5 -13z"/>
<path d="M4285 6370 c-3 -5 -1 -10 4 -10 6 0 11 5 11 10 0 6 -2 10 -4 10 -3 0
-8 -4 -11 -10z"/>
<path d="M4615 6360 c-8 -13 4 -32 16 -25 5 4 9 -5 9 -19 0 -14 5 -26 11 -26
5 0 7 -6 3 -12 -5 -9 -2 -9 9 1 9 7 17 21 17 30 0 14 -2 14 -10 1 -8 -12 -10
-11 -10 7 0 13 -8 24 -20 28 -11 4 -18 11 -15 16 4 5 4 9 1 9 -3 0 -8 -4 -11
-10z"/>
<path d="M4791 6344 c0 -11 3 -14 6 -6 3 7 2 16 -1 19 -3 4 -6 -2 -5 -13z"/>
<path d="M4276 6342 c-15 -24 -25 -63 -15 -57 12 8 32 56 25 62 -2 2 -7 0 -10
-5z"/>
<path d="M5035 6320 c-3 -5 -1 -10 4 -10 6 0 11 5 11 10 0 6 -2 10 -4 10 -3 0
-8 -4 -11 -10z"/>
<path d="M4085 6270 l-80 -6 83 -2 c49 -1 82 2 82 8 0 6 -1 9 -2 8 -2 -1 -39
-5 -83 -8z"/>
<path d="M3900 5998 c-25 -46 -72 -135 -105 -198 -33 -63 -67 -116 -75 -118
-8 -1 -22 10 -31 25 -10 16 -35 59 -58 97 -23 37 -41 70 -41 73 0 2 -20 38
-45 79 -25 40 -45 78 -45 83 0 5 -6 13 -13 20 -11 8 -16 -10 -26 -97 -6 -59
-21 -172 -32 -251 -17 -117 -19 -145 -8 -152 7 -4 16 -6 20 -4 3 3 9 51 13
107 12 191 21 276 29 284 9 9 25 -12 66 -90 18 -34 48 -88 67 -121 19 -33 44
-81 55 -107 12 -27 24 -48 28 -48 3 0 41 71 83 158 93 188 116 228 128 216 5
-5 19 -96 31 -201 22 -188 23 -191 46 -189 19 1 23 7 23 33 0 36 -34 283 -52
378 -6 33 -10 70 -10 83 1 12 0 22 -1 22 -2 0 -23 -37 -47 -82z"/>
<path d="M4110 5901 c0 -197 10 -246 56 -286 45 -39 157 -64 204 -47 19 7 10
10 -46 15 -76 7 -108 25 -139 78 -18 31 -26 118 -34 397 -1 15 -7 22 -21 22
-19 0 -20 -7 -20 -179z"/>
<path d="M4520 6064 c0 -8 5 -12 10 -9 6 3 10 10 10 16 0 5 -4 9 -10 9 -5 0
-10 -7 -10 -16z"/>
<path d="M3078 6007 c-15 -34 -37 -84 -49 -112 -120 -271 -149 -339 -149 -346
0 -19 39 6 45 29 4 15 20 62 37 104 l29 78 104 0 c70 0 106 -4 113 -12 5 -7
25 -53 45 -103 33 -86 37 -90 66 -91 17 -1 31 2 31 6 0 4 -25 61 -56 126 -30
65 -61 133 -69 149 -92 205 -107 235 -114 235 -3 0 -18 -29 -33 -63z m64 -107
c59 -119 56 -125 -69 -129 -54 -2 -63 0 -63 16 0 29 72 194 84 190 6 -1 28
-36 48 -77z"/>
<path d="M2759 6053 c-1 -5 -1 -116 1 -248 3 -280 -3 -316 -56 -347 -43 -25
-38 -35 7 -14 95 42 99 56 99 361 l0 255 -25 0 c-14 0 -26 -3 -26 -7z"/>
<path d="M4683 5922 c4 -70 7 -173 7 -229 0 -87 2 -103 16 -103 8 0 13 4 10 9
-3 5 -6 67 -7 137 -1 71 -6 135 -11 142 -7 8 -7 16 -1 25 14 17 16 94 3 102
-18 11 -11 31 13 32 12 0 16 -1 10 -4 -18 -7 -16 -33 3 -33 10 0 14 7 12 22
-2 17 -10 23 -32 25 l-29 2 6 -127z"/>
<path d="M4523 5880 c1 -205 -10 -237 -98 -285 l-30 -17 30 7 c38 8 49 18 88
74 30 43 32 52 33 145 1 55 -4 131 -10 170 -13 70 -13 69 -13 -94z"/>
<path d="M4747 6006 c-5 -13 10 -36 24 -36 4 0 10 7 13 16 3 8 2 12 -4 9 -6
-3 -10 1 -10 9 0 20 -16 21 -23 2z"/>
<path d="M4783 5969 c-8 -8 -1 -20 25 -45 20 -19 41 -34 47 -34 6 0 15 -10 20
-22 6 -13 17 -22 24 -20 7 1 10 -2 7 -7 -4 -5 3 -16 14 -24 11 -7 17 -17 12
-22 -4 -5 -1 -5 6 -1 6 4 12 2 12 -4 0 -20 70 -82 86 -76 8 3 17 -1 20 -9 4
-8 12 -15 20 -15 8 0 14 -4 14 -10 0 -5 5 -10 10 -10 6 0 10 12 9 28 0 15 -3
21 -6 15 -8 -21 -26 -15 -51 17 -14 17 -29 27 -38 23 -8 -3 -14 1 -14 11 0 9
-8 16 -20 16 -18 0 -25 11 -21 33 1 5 -4 5 -10 1 -9 -5 -10 -2 -6 9 4 11 2 14
-8 11 -8 -3 -12 1 -12 13 1 12 -4 17 -16 17 -10 -1 -16 3 -14 9 5 15 -35 59
-49 53 -6 -2 -11 2 -10 11 2 22 -37 46 -51 32z"/>
<path d="M5112 5905 c0 -16 2 -22 5 -12 2 9 2 23 0 30 -3 6 -5 -1 -5 -18z"/>
<path d="M5123 5680 c0 -25 2 -35 4 -22 2 12 2 32 0 45 -2 12 -4 2 -4 -23z"/>
<path d="M5060 5670 c0 -5 5 -10 10 -10 6 0 10 5 10 10 0 6 -4 10 -10 10 -5 0
-10 -4 -10 -10z"/>
<path d="M5417 5369 c7 -7 15 -10 18 -7 3 3 -2 9 -12 12 -14 6 -15 5 -6 -5z"/>
<path d="M5478 5345 c-4 -17 -1 -25 8 -25 8 0 14 11 14 25 0 14 -4 25 -9 25
-5 0 -11 -11 -13 -25z"/>
<path d="M5344 5347 c-3 -8 -17 -11 -39 -9 -20 2 -35 0 -35 -6 0 -16 21 -19
90 -12 36 4 55 8 43 8 -32 3 -54 13 -47 23 3 5 3 9 -1 9 -3 0 -8 -6 -11 -13z"/>
<path d="M5530 5305 c-7 -9 -21 -13 -31 -10 -9 3 -20 2 -23 -3 -3 -6 2 -12 12
-14 18 -5 70 28 60 37 -3 3 -11 -1 -18 -10z"/>
<path d="M5365 5289 c3 -5 -1 -6 -9 -3 -12 5 -16 -1 -16 -21 0 -22 3 -25 20
-20 13 4 20 2 20 -6 0 -7 7 -5 16 7 11 13 17 15 20 7 11 -27 22 -12 11 16 -8
21 -17 28 -39 29 -16 0 -26 -3 -23 -9z m22 -31 c-3 -8 -6 -5 -6 6 -1 11 2 17
5 13 3 -3 4 -12 1 -19z"/>
<path d="M3297 4963 c-11 -10 -8 -43 3 -43 6 0 10 11 10 25 0 26 -2 29 -13 18z"/>
<path d="M3222 4932 c-24 -7 -31 -24 -13 -30 6 -2 11 1 11 7 0 6 7 11 16 11 8
0 13 -4 10 -8 -2 -4 -1 -14 5 -22 6 -11 9 -6 9 18 0 33 -1 34 -38 24z"/>
<path d="M3112 4895 c0 -16 2 -22 5 -12 2 9 2 23 0 30 -3 6 -5 -1 -5 -18z"/>
<path d="M3141 4894 c0 -11 3 -14 6 -6 3 7 2 16 -1 19 -3 4 -6 -2 -5 -13z"/>
<path d="M3550 4870 c-13 -8 -12 -10 3 -10 9 0 17 5 17 10 0 12 -1 12 -20 0z"/>
<path d="M3875 4834 c-138 -16 -279 -47 -295 -64 -3 -3 -23 -11 -45 -19 -22
-8 -52 -22 -67 -32 -14 -11 -31 -19 -37 -19 -6 0 -11 -4 -11 -10 0 -5 -11 -12
-25 -16 -14 -3 -25 -10 -25 -15 0 -5 -15 -16 -32 -25 -32 -16 -47 -31 -154
-145 -141 -152 -233 -327 -274 -524 -14 -65 -7 -309 9 -329 14 -18 23 -86 12
-86 -6 0 -28 6 -48 14 -207 75 -374 96 -558 70 -67 -9 -226 -54 -305 -86 -41
-17 -89 -35 -105 -42 -17 -6 -46 -22 -65 -36 -19 -14 -38 -25 -42 -25 -5 0
-62 -56 -128 -125 -77 -80 -130 -145 -147 -180 -16 -30 -31 -57 -34 -60 -15
-13 -40 -147 -39 -212 0 -22 -4 -38 -11 -38 -6 0 -9 -6 -6 -13 3 -7 -2 -29
-11 -48 -8 -18 -15 -40 -16 -47 -1 -18 -98 -112 -108 -106 -4 3 -8 14 -8 25 0
10 -4 19 -10 19 -5 0 -10 -7 -10 -16 0 -13 -3 -14 -14 -5 -10 9 -15 8 -19 -4
-10 -24 -69 -55 -106 -55 -55 0 -112 -34 -144 -85 -16 -25 -36 -45 -44 -45
-11 0 -13 -3 -5 -13 7 -8 7 -18 2 -27 -7 -10 -10 -11 -10 -2 0 6 -4 12 -10 12
-5 0 -10 -8 -10 -18 0 -26 -11 -34 -26 -21 -10 9 -15 7 -20 -5 -3 -9 -14 -16
-23 -16 -29 -1 -85 -98 -58 -102 38 -4 67 -3 67 5 0 5 14 -5 31 -22 17 -17 35
-31 40 -31 5 0 9 -7 9 -15 0 -8 6 -15 14 -15 7 0 25 -9 40 -21 14 -11 26 -17
26 -13 0 5 5 3 12 -4 7 -7 22 -12 34 -12 12 0 24 -5 26 -11 2 -6 23 -12 45
-13 33 0 44 -5 52 -23 6 -12 22 -25 37 -29 15 -4 35 -15 45 -25 16 -16 45 -24
72 -20 4 0 7 -2 7 -7 0 -4 15 -14 33 -21 17 -8 54 -27 80 -43 26 -15 52 -28
58 -28 6 0 29 -8 52 -19 60 -26 218 -84 312 -114 44 -14 148 -53 230 -86 83
-33 175 -70 205 -82 63 -25 86 -34 190 -77 41 -17 111 -43 155 -57 44 -15 123
-44 175 -65 190 -75 208 -78 386 -77 134 2 165 5 180 18 11 9 35 20 54 24 19
4 43 14 52 22 13 12 28 14 55 9 48 -9 52 -10 88 -2 41 8 85 27 85 36 0 4 8 11
17 14 15 6 15 5 -1 -13 -25 -28 -141 -86 -211 -106 -32 -9 -64 -23 -70 -30 -5
-8 -25 -18 -44 -22 -19 -5 -36 -14 -39 -21 -6 -19 75 -50 174 -66 49 -8 114
-20 144 -25 245 -44 356 -53 705 -53 292 -1 426 7 590 33 125 20 309 59 370
79 33 10 76 21 95 25 44 8 436 124 590 175 63 21 214 68 335 105 121 36 301
94 400 127 99 33 226 76 283 95 56 19 102 39 102 44 0 14 -28 11 -89 -11 -100
-35 -231 -41 -351 -14 -25 6 -24 6 9 20 18 8 52 14 75 14 41 0 141 24 161 39
6 5 29 15 52 24 76 30 210 123 242 169 17 24 36 50 43 58 7 8 18 23 23 34 17
33 44 44 59 23 8 -9 20 -15 28 -12 9 4 18 -1 21 -9 4 -10 1 -16 -8 -16 -9 0
-15 -10 -15 -24 0 -14 -4 -28 -10 -31 -12 -8 -13 -55 -1 -55 4 0 3 -16 -3 -35
-8 -25 -17 -35 -32 -35 -29 0 -58 -32 -42 -48 7 -7 18 -12 25 -12 18 0 55 22
70 41 7 9 24 20 38 23 l25 6 0 380 c0 256 -4 380 -11 380 -5 0 -30 9 -55 20
-24 11 -61 22 -82 24 -20 2 -53 6 -72 10 -65 12 -66 0 -6 -124 30 -62 54 -116
54 -119 -3 -11 14 -76 22 -86 14 -17 42 -186 35 -212 -8 -33 -28 -24 -38 18
-4 19 -12 48 -18 65 -5 17 -9 53 -10 80 -1 60 -11 96 -27 102 -7 2 -10 -2 -6
-12 3 -9 1 -16 -5 -16 -6 0 -11 10 -11 23 -1 18 -3 17 -15 -10 -8 -18 -18 -33
-24 -33 -5 0 -9 -15 -9 -32 1 -18 -2 -41 -7 -51 -4 -10 -5 -21 -1 -24 7 -7
-24 -32 -41 -33 -7 0 -13 12 -13 27 0 21 -3 24 -12 15 -7 -7 -21 -12 -33 -12
-15 0 -17 -2 -6 -9 7 -5 10 -14 7 -20 -4 -6 -12 -9 -18 -5 -6 4 -8 -3 -6 -17
2 -20 -1 -23 -19 -21 -18 3 -23 -3 -29 -32 -3 -20 -11 -36 -16 -36 -6 0 -8 9
-5 20 4 16 0 20 -18 20 -12 0 -28 -7 -36 -16 -11 -14 -13 -14 -21 0 -5 9 -18
16 -28 16 -11 0 -20 5 -20 11 0 6 -8 9 -19 6 -10 -2 -26 0 -35 5 -11 6 -22 3
-38 -12 -18 -16 -19 -20 -5 -20 8 0 19 5 22 10 4 6 13 7 23 1 9 -4 23 -6 30
-4 7 3 12 -4 12 -16 0 -12 6 -21 13 -21 6 0 0 -6 -14 -14 -50 -26 -126 -2
-114 35 4 13 1 19 -9 19 -10 0 -16 9 -16 25 0 25 -19 36 -21 13 0 -7 -9 5 -20
27 -11 22 -17 32 -14 22 8 -29 -6 -41 -22 -18 -8 12 -11 26 -7 33 5 7 3 8 -5
3 -18 -11 -62 15 -72 43 -7 17 -14 22 -29 17 -11 -4 -20 -2 -20 4 0 6 -17 26
-37 46 -28 25 -33 35 -20 35 9 0 17 -7 17 -15 0 -8 5 -15 10 -15 6 0 8 20 5
51 -6 61 -15 80 -26 53 -7 -18 -8 -18 -8 2 -1 11 -8 29 -17 40 -13 16 -15 16
-10 2 3 -10 1 -18 -4 -18 -6 0 -10 5 -10 11 0 5 -5 7 -11 4 -6 -4 -13 2 -16
14 -3 12 -9 21 -14 21 -14 0 -11 20 6 36 8 9 19 12 25 9 16 -10 11 23 -10 67
-11 23 -18 43 -16 45 9 10 36 -12 36 -29 0 -10 5 -16 10 -13 6 3 10 -2 10 -12
1 -17 2 -16 16 2 14 19 15 19 20 -3 4 -12 12 -22 19 -22 7 0 15 -6 18 -12 2
-8 21 -13 45 -13 41 0 52 7 32 20 -15 9 -12 43 5 53 16 8 10 14 -128 122 -24
19 -54 48 -65 64 -11 15 -41 49 -65 75 -25 26 -56 67 -68 92 -12 24 -31 56
-42 72 -13 19 -17 36 -12 57 4 17 3 30 -2 30 -12 0 -36 86 -28 99 3 6 3 16 0
21 -9 14 -45 -57 -45 -87 0 -20 -5 -22 -32 -20 -36 3 -52 32 -21 40 10 2 -14
3 -53 2 -39 -2 -89 -8 -110 -14 -21 -5 -61 -15 -89 -22 -27 -7 -71 -23 -97
-36 -60 -29 -98 -31 -98 -3 0 32 -30 70 -55 70 -13 0 -26 9 -33 24 -6 13 -19
27 -29 30 -10 3 -28 22 -41 42 -18 28 -21 39 -11 50 8 10 8 14 0 14 -6 0 -11
9 -11 20 0 40 31 10 36 -35 3 -34 64 -105 64 -75 0 5 -4 10 -9 10 -10 0 -25
37 -41 97 -8 33 -14 41 -27 36 -21 -8 -43 22 -43 60 0 22 4 28 15 23 9 -3 15
0 15 8 0 21 -33 52 -62 60 -19 4 -28 13 -28 26 0 11 -4 20 -10 20 -5 0 -10 -7
-10 -16 0 -8 -4 -12 -10 -9 -17 10 -12 45 5 39 23 -9 19 31 -10 82 -31 55 -33
94 -6 94 29 0 32 11 15 60 -17 48 -7 73 21 50 8 -7 13 -15 11 -17 -3 -3 6 -17
20 -32 22 -24 23 -27 7 -38 -9 -7 -12 -13 -6 -13 5 0 18 9 28 20 10 11 24 20
32 20 7 0 13 5 13 11 0 7 7 17 15 23 8 6 18 26 21 44 6 30 5 32 -23 32 -28 0
-73 37 -73 59 0 16 -40 24 -55 11 -18 -15 -32 25 -15 45 10 12 9 15 -9 15 -14
0 -25 -9 -31 -25 -6 -15 -20 -27 -37 -30 -62 -13 -79 -22 -92 -50 l-15 -30 -6
25 c-6 24 -10 25 -80 27 -41 0 -93 -2 -115 -6 -35 -6 -40 -10 -37 -31 18 -156
15 -358 -5 -302 -3 6 -15 12 -28 12 -13 0 -28 8 -33 17 -11 19 -53 26 -45 7 2
-7 -1 -14 -9 -17 -7 -2 -1 -3 15 -1 15 2 27 -1 27 -6 0 -6 -9 -10 -20 -10 -11
0 -20 -5 -20 -11 0 -8 -4 -8 -15 1 -8 6 -19 9 -25 5 -6 -4 -18 1 -25 11 -8 11
-15 14 -15 7 0 -6 -5 -24 -11 -40 -9 -25 -12 -26 -23 -11 -13 18 -31 12 -31
-12 0 -8 -8 -16 -17 -18 -18 -3 -23 14 -20 63 2 19 1 19 -17 -2 -22 -26 -36
-30 -28 -8 4 8 -5 22 -21 33 -35 24 -62 34 -62 22 0 -6 9 -10 19 -10 22 0 30
-16 23 -43 -6 -23 -28 -16 -24 8 3 14 -1 16 -17 12 -12 -3 -21 0 -21 6 0 9
-31 11 -112 7 -139 -7 -171 4 -166 53 2 23 -1 33 -13 35 -9 2 -19 -4 -23 -14
-4 -12 -2 -15 9 -10 11 4 15 -1 15 -20 0 -25 0 -25 -24 -7 -15 11 -26 32 -29
53 -3 19 -9 51 -14 70 -7 29 -10 32 -16 16 -4 -10 -2 -25 4 -32 8 -10 8 -14 0
-14 -6 0 -11 5 -11 11 0 6 -6 9 -14 6 -17 -7 -26 13 -26 54 0 39 -18 37 -22
-3 l-3 -32 -15 28 c-11 21 -11 29 -2 35 7 4 11 18 10 32 -2 14 2 23 9 22 7 -2
10 4 7 12 -4 8 -12 15 -20 15 -8 0 -11 6 -8 15 5 11 2 13 -10 9 -17 -7 -22
-34 -6 -34 6 0 10 -12 9 -27 0 -16 -3 -22 -6 -14 -3 8 -17 25 -29 38 -27 27
-28 32 -13 53 9 12 10 10 5 -9 -3 -17 -2 -21 6 -13 13 13 21 115 9 107 -5 -3
-12 1 -14 7 -3 7 -6 -2 -6 -19 -1 -18 -6 -33 -12 -33 -6 0 -9 8 -7 18 3 10 -5
33 -18 52 -25 36 -23 59 4 38 14 -11 15 -10 9 5 -4 10 -7 21 -7 23 0 2 -7 4
-15 4 -10 0 -15 10 -15 31 0 17 4 28 10 24 6 -3 10 -13 10 -20 0 -9 6 -12 15
-9 8 4 15 1 15 -5 0 -6 5 -11 11 -11 12 0 1 43 -12 48 -13 5 -11 39 3 62 10
16 10 24 0 40 -7 12 -8 20 -2 20 5 0 10 7 10 15 0 15 -27 -3 -142 -93 -51 -40
-160 -87 -196 -84 -30 2 -82 30 -82 44 0 6 18 32 41 57 22 25 43 51 47 56 4 6
19 26 32 45 14 19 44 55 67 80 24 25 46 53 49 62 3 9 19 26 37 37 18 11 42 38
55 61 12 22 21 39 20 39 -2 -1 -16 -4 -33 -5z m20 -495 c10 -15 -1 -23 -20
-15 -9 3 -13 10 -10 16 8 13 22 13 30 -1z m63 -158 c3 -8 -1 -12 -9 -9 -7 2
-15 10 -17 17 -3 8 1 12 9 9 7 -2 15 -10 17 -17z m7 -101 c3 -5 1 -10 -4 -10
-6 0 -11 5 -11 10 0 6 2 10 4 10 3 0 8 -4 11 -10z m1538 -34 c4 -10 1 -13 -9
-9 -7 3 -14 9 -14 14 0 14 17 10 23 -5z m-1440 -107 c5 -4 6 -12 2 -19 -5 -8
-11 -5 -22 9 -8 12 -11 26 -7 33 6 9 9 8 12 -2 3 -8 9 -18 15 -21z m81 -45 c4
-15 5 -29 1 -32 -3 -3 -5 0 -5 6 0 7 -9 21 -20 32 -19 19 -19 20 -1 20 12 0
21 -9 25 -26z m36 -77 c0 -5 -4 -5 -10 -2 -5 3 -10 14 -10 23 0 15 2 15 10 2
5 -8 10 -19 10 -23z m76 -68 c277 -101 304 -108 359 -98 28 6 61 12 75 14 14
2 33 6 43 10 11 5 17 3 17 -6 -1 -19 -21 -44 -43 -52 -28 -10 -10 -27 29 -27
20 0 34 -5 34 -12 0 -9 3 -9 12 0 7 7 21 12 31 12 16 0 17 3 8 14 -10 11 -8
17 6 25 10 6 13 11 6 11 -17 0 -4 30 12 30 7 0 15 -3 18 -7 2 -5 2 -2 1 5 -2
7 6 17 19 22 21 8 21 9 -4 9 -34 1 -49 31 -16 31 61 0 286 -148 366 -240 111
-128 148 -195 197 -349 31 -97 30 -112 -11 -157 -19 -22 -42 -54 -52 -71 -10
-18 -21 -33 -26 -33 -4 0 -6 -4 -3 -9 3 -4 -3 -27 -14 -49 -11 -23 -20 -45
-20 -50 0 -17 -37 -43 -53 -37 -8 4 -18 2 -22 -4 -11 -19 -27 -12 -20 9 9 29
-13 25 -37 -6 -13 -16 -28 -24 -42 -22 -28 4 -28 34 1 31 11 -1 26 4 33 12 18
22 -25 41 -56 24 -28 -14 -63 -1 -101 38 -12 13 -31 23 -42 23 -10 0 -21 6
-24 13 -2 6 -8 0 -12 -15 -9 -34 -35 -37 -35 -5 -1 55 -13 127 -21 127 -5 0
-9 -28 -9 -62 0 -57 -3 -64 -24 -74 -22 -10 -25 -9 -30 19 -3 16 -6 40 -6 53
0 25 -23 33 -36 13 -4 -8 -9 -8 -17 0 -17 17 -27 13 -28 -11 0 -13 -3 -17 -6
-10 -2 6 -9 12 -15 12 -5 0 -17 7 -26 17 -16 15 -15 16 9 11 22 -4 25 -2 21
18 -2 13 -10 28 -18 34 -7 6 -10 18 -7 26 8 21 -10 17 -27 -5 -13 -19 -14 -19
-26 5 -7 14 -10 32 -7 41 5 12 2 15 -9 10 -13 -4 -16 1 -15 25 1 17 7 33 13
35 13 4 28 -62 18 -78 -4 -7 1 -9 12 -7 13 2 18 11 16 23 -2 11 -6 40 -9 65
-5 35 -7 41 -14 25 -7 -18 -8 -18 -8 -2 -1 10 -5 16 -10 12 -6 -3 -14 9 -19
27 -6 18 -13 41 -18 52 -5 14 -3 17 7 14 8 -3 14 -9 15 -14 0 -5 6 -20 12 -34
10 -23 11 -22 11 17 1 24 -4 43 -11 46 -7 2 -9 8 -5 13 5 5 15 1 23 -10 7 -11
17 -16 21 -13 4 4 1 13 -5 19 -16 16 -15 28 2 28 21 0 25 23 7 38 -14 11 -14
11 2 6 10 -4 17 -1 17 7 0 7 7 21 17 31 15 17 15 18 -3 18 -11 0 -25 -5 -32
-12 -7 -7 -12 -8 -12 -4 0 4 16 23 35 42 19 18 35 42 35 52 0 11 9 27 19 36
22 20 34 56 19 56 -5 0 -22 -6 -36 -14 -15 -8 -48 -18 -74 -21 -27 -3 -48 -11
-48 -16 0 -10 -73 -7 -100 4 -8 3 -55 18 -105 33 -99 29 -180 67 -265 123 -30
20 -58 37 -62 37 -5 1 -12 2 -18 3 -5 0 -10 7 -10 14 0 7 -9 18 -20 25 -11 7
-20 19 -20 27 0 12 14 15 63 15 52 0 90 -10 203 -51z m269 -9 c3 -5 1 -10 -4
-10 -6 0 -11 5 -11 10 0 6 2 10 4 10 3 0 8 -4 11 -10z m250 -21 c-4 -5 1 -9 9
-9 19 0 21 -11 4 -28 -9 -9 -9 -12 0 -12 7 0 12 -7 12 -15 0 -26 -14 -16 -34
24 -18 38 -15 68 5 55 5 -3 7 -10 4 -15z m575 -44 c0 -13 -4 -26 -9 -29 -5 -3
-9 10 -8 28 1 38 17 39 17 1z m103 -45 c-9 -10 -20 -17 -25 -14 -4 3 -8 -3 -9
-13 -1 -12 -3 -10 -8 7 -6 21 -3 27 18 37 34 15 44 7 24 -17z m-1242 -53 c19
-8 57 -22 84 -32 l50 -19 -40 -7 c-47 -8 -259 7 -283 20 -12 7 -7 13 29 30 51
24 112 27 160 8z m1229 -88 c0 -14 -17 -10 -23 5 -4 10 -1 13 9 9 7 -3 14 -9
14 -14z m-770 -34 c-7 -9 -15 -13 -18 -10 -3 2 1 11 8 20 7 9 15 13 18 10 3
-2 -1 -11 -8 -20z m-80 -85 c0 -5 -2 -10 -4 -10 -3 0 -8 5 -11 10 -3 6 -1 10
4 10 6 0 11 -4 11 -10z m15 -69 c-19 -19 -25 -13 -18 23 6 27 7 28 20 11 11
-16 11 -21 -2 -34z m925 39 c0 -5 -2 -10 -4 -10 -3 0 -8 5 -11 10 -3 6 -1 10
4 10 6 0 11 -4 11 -10z m-987 -20 c3 -11 1 -20 -4 -20 -5 0 -9 9 -9 20 0 11 2
20 4 20 2 0 6 -9 9 -20z m1077 -46 c0 -8 -4 -12 -10 -9 -5 3 -10 13 -10 21 0
8 5 12 10 9 6 -3 10 -13 10 -21z m-35 -24 c3 -5 1 -10 -4 -10 -6 0 -11 5 -11
10 0 6 2 10 4 10 3 0 8 -4 11 -10z m42 -26 c-9 -9 -28 6 -21 18 4 6 10 6 17
-1 6 -6 8 -13 4 -17z m-3115 -46 c-9 -9 -12 -7 -12 12 0 19 3 21 12 12 9 -9 9
-15 0 -24z m88 8 c0 -3 -4 -8 -10 -11 -5 -3 -10 -1 -10 4 0 6 5 11 10 11 6 0
10 -2 10 -4z m1969 -50 c-1 -16 -2 -17 -6 -3 -2 9 -9 17 -14 17 -5 0 -9 4 -9
10 0 5 7 7 15 4 8 -4 14 -16 14 -28z m-1889 14 c0 -5 -4 -10 -10 -10 -5 0 -10
5 -10 10 0 6 5 10 10 10 6 0 10 -4 10 -10z m22 -62 c-7 -7 -12 -8 -12 -2 0 6
3 14 7 17 3 4 9 5 12 2 2 -3 -1 -11 -7 -17z m1868 -8 c0 -5 -7 -7 -15 -4 -8 4
-12 10 -9 15 6 11 24 2 24 -11z m-1930 -7 c0 10 6 17 14 17 23 0 28 -17 11
-33 -14 -15 -21 -57 -9 -57 11 0 34 29 44 54 5 14 14 26 20 26 7 0 8 -6 0 -19
-13 -25 -13 -41 0 -41 6 0 10 7 10 15 0 9 8 25 18 35 17 19 18 18 14 -17 -4
-31 -2 -35 12 -30 11 5 27 -3 45 -22 24 -25 29 -39 34 -107 4 -44 3 -92 -1
-108 -9 -32 4 -84 43 -171 27 -62 40 -96 55 -157 7 -26 19 -53 26 -59 8 -6 14
-24 14 -40 0 -15 5 -31 10 -34 16 -10 11 -51 -8 -69 -18 -15 -22 -13 -88 54
-37 38 -75 82 -83 97 -7 16 -22 38 -32 51 -10 13 -27 52 -39 87 -15 47 -25 62
-36 58 -8 -3 -14 1 -14 11 0 21 -39 41 -53 27 -6 -6 -7 -14 -3 -18 4 -4 11 -2
15 5 6 9 12 3 20 -20 7 -18 19 -46 27 -61 24 -48 17 -75 -32 -132 -45 -51 -48
-53 -117 -63 -40 -6 -75 -8 -79 -4 -4 4 15 48 42 97 100 184 130 245 130 263
0 11 -9 45 -20 78 -12 32 -19 66 -17 74 2 9 -2 21 -10 28 -18 18 -16 35 3 28
12 -5 15 -2 10 10 -3 8 -6 22 -6 30 0 7 -6 11 -14 8 -18 -7 -28 23 -16 46 6
10 10 29 10 43 0 33 10 40 32 20 17 -15 18 -15 18 0z m-81 -35 c0 -31 -1 -31
-10 -10 -5 13 -7 28 -3 33 10 16 14 9 13 -23z m261 11 c0 -5 -7 -9 -15 -9 -15
0 -20 12 -9 23 8 8 24 -1 24 -14z m-337 -91 c-5 -28 -17 -36 -27 -19 -3 5 -3
23 0 41 6 26 9 29 20 18 7 -7 10 -25 7 -40z m2134 20 c-3 -8 -6 -5 -6 6 -1 11
2 17 5 13 3 -3 4 -12 1 -19z m54 -135 c-13 -23 -24 2 -16 35 l7 27 9 -23 c5
-14 5 -30 0 -39z m113 5 c9 -34 7 -50 -4 -43 -6 4 -8 10 -5 15 3 5 1 19 -5 30
-6 11 -7 20 -2 20 6 0 12 -10 16 -22z m1576 -23 c0 -8 -4 -15 -10 -15 -5 0
-10 7 -10 15 0 8 5 15 10 15 6 0 10 -7 10 -15z m-1400 -26 c0 -5 4 -8 9 -5 5
3 11 -1 15 -9 9 -26 -11 -26 -28 0 -9 14 -12 25 -6 25 5 0 10 -5 10 -11z m110
-49 c0 -5 -4 -10 -10 -10 -5 0 -10 5 -10 10 0 6 5 10 10 10 6 0 10 -4 10 -10z
m1277 -22 c-3 -7 -5 -2 -5 12 0 14 2 19 5 13 2 -7 2 -19 0 -25z m53 11 c0 -5
-4 -9 -10 -9 -5 0 -10 7 -10 16 0 8 5 12 10 9 6 -3 10 -10 10 -16z m-284 -34
c9 -19 9 -27 -2 -36 -8 -6 -14 -10 -15 -8 -7 29 -8 69 -2 69 4 0 13 -11 19
-25z m-3186 -29 c0 -3 -4 -8 -10 -11 -5 -3 -10 -1 -10 4 0 6 5 11 10 11 6 0
10 -2 10 -4z m131 -90 c-11 -27 -24 -37 -16 -11 3 8 7 22 10 31 3 9 8 15 11
12 2 -3 0 -17 -5 -32z m157 10 c-1 -1 -10 -7 -19 -14 -14 -11 -16 -9 -16 12 0
22 2 24 19 15 11 -6 18 -12 16 -13z m201 -13 c6 -9 25 -13 82 -17 51 -5 63
-14 44 -32 -18 -18 -11 -36 10 -27 8 3 15 0 15 -6 0 -6 -7 -11 -16 -11 -8 0
-12 -5 -9 -10 4 -7 16 -4 34 6 26 15 30 15 54 -1 14 -9 31 -14 36 -11 12 8 41
-32 41 -56 0 -9 6 -21 14 -25 15 -9 100 -182 109 -223 8 -34 -15 -64 -42 -55
-12 3 -21 2 -21 -3 0 -6 -7 -13 -16 -16 -12 -4 -15 -2 -10 9 3 8 1 15 -4 15
-17 0 -20 -18 -5 -30 10 -8 13 -21 8 -39 -10 -42 -54 -101 -75 -101 -10 0 -21
-7 -24 -15 -7 -18 -34 -20 -34 -2 0 6 -16 25 -36 41 -26 21 -39 25 -47 17 -8
-8 -5 -16 11 -31 12 -12 22 -27 22 -34 0 -17 25 -27 44 -20 11 4 13 0 9 -14
-3 -13 -17 -22 -40 -27 -19 -3 -40 -8 -47 -11 -23 -9 -27 36 -5 54 27 24 24
40 -9 38 -54 -5 -93 -41 -44 -41 21 0 18 -51 -4 -76 -17 -19 -18 -36 -3 -41
11 -4 6 -16 -19 -57 -1 -3 -11 5 -22 17 -21 22 -28 48 -10 37 6 -3 10 -1 10 5
0 7 -7 9 -16 6 -10 -4 -26 1 -37 11 -19 17 -20 17 -14 1 4 -12 1 -18 -9 -18
-10 0 -14 6 -11 15 4 8 2 17 -4 21 -6 3 -8 12 -5 20 3 7 -8 21 -27 33 -56 35
-92 81 -88 113 2 24 -2 31 -27 40 -21 8 -32 20 -36 40 -4 19 -12 28 -25 28
-21 0 -35 31 -32 74 2 23 -1 27 -13 23 -14 -6 -14 -4 0 19 9 13 23 28 31 32
16 10 22 144 6 149 -6 2 -19 10 -29 18 -14 11 -16 17 -7 23 6 4 13 29 14 54 2
26 8 49 14 52 6 2 32 2 59 1 41 -3 49 -1 53 16 6 21 11 23 31 10 11 -7 11 -9
-2 -14 -22 -9 -20 -24 4 -30 14 -4 25 1 33 14 6 10 18 19 26 19 12 0 12 -3 3
-12 -22 -22 -14 -39 16 -34 15 2 30 5 35 5 4 1 7 8 7 16 0 8 4 15 10 15 5 0 7
7 4 15 -4 8 -12 15 -20 15 -8 0 -11 -6 -8 -15 4 -8 1 -15 -4 -15 -18 0 -24 18
-12 39 8 17 15 18 42 10 17 -5 34 -12 37 -16z m2981 17 c0 -5 -2 -10 -4 -10
-3 0 -8 5 -11 10 -3 6 -1 10 4 10 6 0 11 -4 11 -10z m944 1 c4 -5 -3 -7 -14
-4 -23 6 -26 13 -6 13 8 0 17 -4 20 -9z m-4054 -5 c0 -3 -4 -8 -10 -11 -5 -3
-10 -1 -10 4 0 6 5 11 10 11 6 0 10 -2 10 -4z m-219 -77 c-5 -13 -10 -19 -10
-12 -1 15 10 45 15 40 3 -2 0 -15 -5 -28z m-28 -20 c-4 -16 -8 -17 -14 -7 -13
19 -11 28 5 28 9 0 12 -7 9 -21z m3377 6 c0 -8 -4 -15 -10 -15 -5 0 -10 7 -10
15 0 8 5 15 10 15 6 0 10 -7 10 -15z m-2750 -16 c0 -5 -4 -9 -10 -9 -5 0 -10
7 -10 16 0 8 5 12 10 9 6 -3 10 -10 10 -16z m-610 -61 c0 -5 -4 -8 -10 -8 -5
0 -10 10 -10 23 0 18 2 19 10 7 5 -8 10 -18 10 -22z m3384 17 c3 -9 0 -15 -9
-15 -8 0 -15 7 -15 15 0 8 4 15 9 15 5 0 11 -7 15 -15z m-1394 -40 c7 -9 8
-15 2 -15 -5 0 -12 7 -16 15 -3 8 -4 15 -2 15 2 0 9 -7 16 -15z m90 -1 c0 -8
-4 -12 -10 -9 -5 3 -10 10 -10 16 0 5 5 9 10 9 6 0 10 -7 10 -16z m140 -4 c0
-5 -4 -10 -10 -10 -5 0 -10 5 -10 10 0 6 5 10 10 10 6 0 10 -4 10 -10z m115
-50 c3 -5 1 -10 -4 -10 -6 0 -11 5 -11 10 0 6 2 10 4 10 3 0 8 -4 11 -10z
m120 -60 c7 -12 -2 -12 -30 0 -19 8 -19 9 2 9 12 1 25 -3 28 -9z m1645 -14 c0
-17 -24 -38 -33 -29 -15 15 -6 43 13 43 11 0 20 -6 20 -14z m-1583 -60 c17 -3
134 -103 158 -135 11 -15 35 -43 52 -62 18 -19 33 -39 33 -45 0 -6 9 -19 20
-29 11 -10 20 -22 20 -27 0 -4 15 -29 34 -55 46 -65 49 -82 27 -129 -12 -24
-16 -43 -10 -48 12 -13 12 -93 -1 -117 -13 -24 -26 -24 -47 0 -23 27 -73 4
-73 -34 0 -8 -8 -18 -17 -21 -43 -14 -83 -36 -83 -44 0 -6 -9 -10 -20 -10 -17
0 -19 -3 -10 -19 12 -24 13 -34 2 -27 -5 3 -26 0 -48 -5 -35 -9 -46 -7 -77 10
-20 11 -37 16 -37 11 0 -6 -4 -10 -9 -10 -10 0 -41 56 -41 72 0 11 -32 55 -66
93 -19 21 -20 28 -10 59 11 36 32 44 30 12 -1 -9 3 -16 8 -16 5 0 8 10 6 23
-2 14 -11 23 -26 25 -31 5 -25 38 6 35 35 -4 26 10 -20 32 -24 12 -49 33 -56
48 -7 15 -32 37 -55 49 -23 11 -36 23 -29 25 14 5 17 43 3 43 -5 0 -11 -6 -14
-12 -6 -16 -34 9 -37 32 -5 36 1 44 15 20 l14 -25 1 33 c0 17 -4 32 -10 32 -5
0 -14 19 -21 42 -9 36 -9 44 6 55 11 7 16 20 12 33 -6 25 35 50 83 50 16 0 30
5 30 10 0 6 10 10 22 10 20 0 20 -2 -10 -31 -18 -17 -32 -40 -32 -50 0 -27 15
-24 28 6 13 28 37 32 66 10 28 -21 42 -18 22 4 -17 19 -17 20 3 30 25 14 51
14 51 1 0 -5 7 -10 15 -10 8 0 15 -4 15 -9 0 -5 6 -9 13 -8 35 1 58 -4 52 -12
-3 -5 0 -13 6 -17 8 -4 9 -3 5 4 -5 8 0 12 13 12 24 0 28 22 6 40 -8 7 -15 9
-15 6 0 -4 -15 4 -33 18 -19 15 -43 26 -55 26 -11 0 -23 4 -26 9 -11 17 7 19
52 5 26 -8 52 -16 59 -18z m-287 14 c0 -5 -2 -10 -4 -10 -3 0 -8 5 -11 10 -3
6 -1 10 4 10 6 0 11 -4 11 -10z m1810 -20 c0 -5 -7 -10 -16 -10 -8 0 -12 5 -9
10 3 6 10 10 16 10 5 0 9 -4 9 -10z m-160 -10 c0 -5 -2 -10 -4 -10 -3 0 -8 5
-11 10 -3 6 -1 10 4 10 6 0 11 -4 11 -10z m-3910 -16 c0 -12 -3 -14 -12 -6 -7
5 -22 12 -33 15 -13 3 -9 5 13 6 23 1 32 -3 32 -15z m2098 4 c-6 -18 -28 -21
-28 -4 0 9 7 16 16 16 9 0 14 -5 12 -12z m2332 -19 c0 -6 -4 -7 -10 -4 -5 3
-10 11 -10 16 0 6 5 7 10 4 6 -3 10 -11 10 -16z m-478 -21 l-22 -22 0 21 c0
12 7 23 18 25 27 6 28 -1 4 -24z m68 2 c0 -5 -8 -10 -17 -10 -15 0 -16 2 -3
10 19 12 20 12 20 0z m-4076 -67 c-9 -39 -15 -47 -24 -32 -9 13 8 59 22 59 5
0 5 -12 2 -27z m2186 -13 c0 -5 -4 -10 -10 -10 -5 0 -10 5 -10 10 0 6 5 10 10
10 6 0 10 -4 10 -10z m-2230 -60 c0 -5 -4 -10 -10 -10 -5 0 -10 5 -10 10 0 6
5 10 10 10 6 0 10 -4 10 -10z m240 -25 c0 -8 -9 -10 -25 -7 -26 5 -34 27 -12
35 15 5 37 -11 37 -28z m-1273 -77 c-3 -8 -6 -5 -6 6 -1 11 2 17 5 13 3 -3 4
-12 1 -19z m-17 2 c0 -5 -4 -10 -10 -10 -5 0 -10 5 -10 10 0 6 5 10 10 10 6 0
10 -4 10 -10z m3310 -36 c0 -8 -4 -12 -10 -9 -5 3 -10 10 -10 16 0 5 5 9 10 9
6 0 10 -7 10 -16z m-1489 -77 c-10 -9 -11 -8 -5 6 3 10 9 15 12 12 3 -3 0 -11
-7 -18z m-155 -84 c-10 -10 -19 5 -10 18 6 11 8 11 12 0 2 -7 1 -15 -2 -18z
m-46 7 c0 -5 -2 -10 -4 -10 -3 0 -8 5 -11 10 -3 6 -1 10 4 10 6 0 11 -4 11
-10z m1830 -5 c0 -8 -4 -15 -9 -15 -13 0 -22 16 -14 24 11 11 23 6 23 -9z
m-1855 -75 c-15 -29 -35 -40 -35 -19 0 20 21 49 36 49 13 0 13 -4 -1 -30z"/>
<path d="M4657 3246 c-4 -10 -1 -13 8 -9 8 3 12 9 9 14 -7 12 -11 11 -17 -5z"/>
<path d="M4650 3194 c0 -8 5 -12 10 -9 6 4 8 11 5 16 -9 14 -15 11 -15 -7z"/>
<path d="M4667 3104 c-7 -8 3 -34 13 -34 9 0 8 26 -1 35 -3 3 -8 2 -12 -1z"/>
<path d="M4790 3095 c0 -8 4 -15 10 -15 5 0 7 7 4 15 -4 8 -8 15 -10 15 -2 0
-4 -7 -4 -15z"/>
<path d="M4886 3058 c8 -28 12 -33 20 -25 9 8 -6 47 -17 47 -6 0 -7 -10 -3
-22z"/>
<path d="M4745 3049 c-4 -6 -13 -8 -21 -5 -23 9 -16 -12 10 -29 18 -12 23 -23
20 -50 -1 -19 2 -35 7 -35 5 0 9 18 9 40 0 22 -4 40 -10 40 -5 0 -10 7 -10 15
0 8 5 15 10 15 6 0 10 5 10 10 0 13 -17 13 -25 -1z"/>
<path d="M4707 3003 c-2 -5 -1 -19 4 -33 7 -23 7 -23 8 8 1 31 -3 40 -12 25z"/>
<path d="M4970 2961 c0 -21 13 -41 26 -41 17 0 17 5 4 31 -11 20 -30 26 -30
10z"/>
<path d="M5020 2832 c0 -12 19 -26 26 -19 2 2 -2 10 -11 17 -9 8 -15 8 -15 2z"/>
<path d="M5093 2833 c-22 -8 -14 -23 13 -23 15 0 24 5 22 12 -5 14 -18 18 -35
11z"/>
<path d="M3130 2498 c0 -12 1 -19 3 -17 1 2 9 12 16 22 12 14 11 17 -3 17 -10
0 -16 -8 -16 -22z"/>
<path d="M3171 2474 c0 -11 3 -14 6 -6 3 7 2 16 -1 19 -3 4 -6 -2 -5 -13z"/>
<path d="M3556 2211 c-4 -7 -5 -15 -2 -18 9 -9 19 4 14 18 -4 11 -6 11 -12 0z"/>
<path d="M3236 2001 c-7 -10 18 -63 26 -56 2 3 3 18 0 35 -4 30 -16 39 -26 21z"/>
<path d="M3526 1891 c-4 -5 -2 -12 3 -15 5 -4 12 -2 15 3 4 5 2 12 -3 15 -5 4
-12 2 -15 -3z"/>
<path d="M5245 2140 c-9 -15 5 -109 17 -116 7 -5 8 8 4 39 -4 28 -3 54 4 67 8
16 8 20 -4 20 -8 0 -18 -5 -21 -10z"/>
<path d="M5507 2109 c7 -27 23 -34 23 -11 0 11 -6 22 -14 25 -10 4 -12 0 -9
-14z"/>
<path d="M5320 1986 c0 -21 20 -30 33 -17 9 9 8 14 -3 21 -21 14 -30 12 -30
-4z"/>
<path d="M5386 1905 c4 -8 12 -15 20 -15 19 0 18 16 -2 24 -22 9 -24 8 -18 -9z"/>
<path d="M5320 1886 c0 -9 5 -16 10 -16 6 0 10 4 10 9 0 6 -4 13 -10 16 -5 3
-10 -1 -10 -9z"/>
<path d="M5280 1866 c0 -9 5 -16 10 -16 6 0 10 4 10 9 0 6 -4 13 -10 16 -5 3
-10 -1 -10 -9z"/>
<path d="M5857 1648 c-4 -12 -4 -24 -2 -26 6 -7 24 8 35 29 9 16 7 19 -8 19
-12 0 -22 -9 -25 -22z"/>
<path d="M5420 1610 c0 -6 7 -10 15 -10 8 0 15 2 15 4 0 2 -7 6 -15 10 -8 3
-15 1 -15 -4z"/>
<path d="M5442 1553 c8 -10 18 -26 21 -35 10 -30 28 -21 21 10 -9 38 -13 42
-36 42 -19 0 -20 -2 -6 -17z"/>
<path d="M2637 4823 c-12 -11 -8 -23 8 -23 8 0 15 7 15 15 0 16 -12 20 -23 8z"/>
<path d="M4086 4774 c-4 -33 -2 -50 8 -60 11 -11 16 -11 19 -1 4 8 8 9 14 1 5
-6 36 -10 73 -9 89 3 92 3 84 16 -3 6 -17 8 -29 5 -24 -6 -43 8 -26 19 12 7 3
35 -11 35 -5 0 -7 -4 -4 -9 3 -5 -1 -14 -8 -20 -19 -16 -32 4 -17 23 15 18
-13 30 -39 16 -26 -14 -40 -12 -40 4 0 8 -4 17 -9 20 -4 3 -11 -15 -15 -40z"/>
<path d="M2380 4750 c0 -13 11 -13 30 0 12 8 11 10 -7 10 -13 0 -23 -4 -23
-10z"/>
<path d="M4064 4681 c4 -5 3 -11 -2 -13 -4 -1 -24 -25 -44 -53 -32 -45 -35
-54 -28 -90 4 -22 8 -34 9 -27 0 8 11 27 22 44 l22 30 -22 -7 c-35 -11 -25 14
29 65 27 26 47 50 43 54 -10 10 -35 7 -29 -3z"/>
<path d="M4435 4680 c-3 -5 -1 -10 4 -10 6 0 11 5 11 10 0 6 -2 10 -4 10 -3 0
-8 -4 -11 -10z"/>
<path d="M2451 4643 c-9 -10 -10 -18 -3 -25 7 -7 12 -3 17 12 9 27 4 32 -14
13z"/>
<path d="M107 4400 c-5 -140 -12 -334 -17 -430 -4 -96 -6 -178 -4 -182 7 -10
66 12 91 35 12 11 29 17 37 14 9 -4 18 -2 21 3 4 6 15 10 26 10 11 0 22 6 25
13 3 8 10 14 17 14 11 1 45 14 139 51 28 12 46 32 28 32 -7 0 -9 7 -6 16 7 17
-18 64 -33 64 -5 0 -8 -8 -7 -17 0 -12 -7 -19 -21 -21 -13 -2 -23 -8 -23 -13
0 -5 -7 -9 -15 -9 -8 0 -15 5 -15 10 0 6 5 10 10 10 6 0 19 9 30 20 l20 20
-39 0 c-34 0 -38 2 -34 23 4 21 1 23 -38 22 -25 0 -44 5 -46 12 -6 17 22 27
45 18 29 -13 52 -15 52 -5 0 6 -6 10 -14 10 -22 0 -30 19 -16 35 20 24 3 17
-20 -7 -17 -19 -24 -20 -40 -10 -15 9 -22 9 -32 -1 -24 -22 -58 -38 -58 -27 0
5 6 10 13 10 9 0 8 3 -2 9 -11 7 -11 9 0 14 10 4 9 6 -3 6 -31 2 -23 111 8
111 17 0 18 17 2 23 -10 4 -10 6 0 6 14 1 17 41 3 41 -5 0 -12 -13 -16 -29 -7
-33 -35 -64 -35 -40 0 11 -2 11 -11 -1 -7 -11 -8 13 -3 80 4 52 6 109 5 125
-2 17 -6 66 -10 110 -5 64 -8 28 -14 -175z m33 -201 c0 -6 -4 -7 -10 -4 -5 3
-10 11 -10 16 0 6 5 7 10 4 6 -3 10 -11 10 -16z m15 -69 c3 -5 -1 -10 -10 -10
-9 0 -13 5 -10 10 3 6 8 10 10 10 2 0 7 -4 10 -10z m250 -200 c-3 -5 -12 -10
-20 -10 -8 0 -17 5 -20 10 -4 6 5 10 20 10 15 0 24 -4 20 -10z"/>
<path d="M2220 4640 c0 -5 9 -10 20 -10 11 0 20 5 20 10 0 6 -9 10 -20 10 -11
0 -20 -4 -20 -10z"/>
<path d="M4070 4603 c-13 -15 -12 -16 4 -10 10 4 20 7 22 7 2 0 4 5 4 10 0 15
-13 12 -30 -7z"/>
<path d="M2178 4603 c6 -2 18 -2 25 0 6 3 1 5 -13 5 -14 0 -19 -2 -12 -5z"/>
<path d="M2174 4549 c-3 -6 -1 -16 5 -22 8 -8 11 -5 11 11 0 24 -5 28 -16 11z"/>
<path d="M2220 4535 c0 -8 9 -15 20 -15 11 0 20 2 20 5 0 2 -9 9 -20 15 -16 9
-20 8 -20 -5z"/>
<path d="M2250 4480 c0 -5 5 -10 10 -10 6 0 10 5 10 10 0 6 -4 10 -10 10 -5 0
-10 -4 -10 -10z"/>
<path d="M4735 4480 c3 -5 8 -10 11 -10 2 0 4 5 4 10 0 6 -5 10 -11 10 -5 0
-7 -4 -4 -10z"/>
<path d="M1817 4420 l6 -39 -34 9 c-48 14 -49 13 -49 -20 0 -16 -4 -30 -10
-30 -5 0 -10 5 -10 10 0 6 -4 10 -10 10 -5 0 -10 -8 -10 -19 0 -13 10 -20 31
-25 45 -9 46 -8 52 14 3 11 16 24 30 29 16 6 26 20 30 41 6 27 9 30 26 20 28
-14 31 -13 31 15 0 27 -9 32 -28 13 -10 -10 -17 -10 -32 0 -28 17 -29 16 -23
-28z"/>
<path d="M1920 4420 c0 -5 9 -10 21 -10 11 0 17 5 14 10 -3 6 -13 10 -21 10
-8 0 -14 -4 -14 -10z"/>
<path d="M148 4363 c7 -3 16 -2 19 1 4 3 -2 6 -13 5 -11 0 -14 -3 -6 -6z"/>
<path d="M4014 4340 c3 -14 6 -32 6 -40 1 -12 3 -11 11 3 7 13 6 23 -7 40
l-16 22 6 -25z"/>
<path d="M1630 4343 c0 -2 6 -11 14 -18 10 -10 16 -11 25 -2 17 17 13 25 -14
25 -14 0 -25 -3 -25 -5z"/>
<path d="M135 4310 c-4 -12 -5 -24 -2 -27 3 -2 8 5 12 17 4 12 5 24 2 27 -3 2
-8 -5 -12 -17z"/>
<path d="M3987 4303 c-4 -3 -7 -13 -7 -21 0 -12 3 -12 15 -2 8 7 15 16 15 21
0 11 -14 12 -23 2z"/>
<path d="M1646 4284 c-4 -9 -4 -19 -1 -22 2 -3 7 3 11 12 4 9 4 19 1 22 -2 3
-7 -3 -11 -12z"/>
<path d="M4150 4280 c0 -5 5 -10 10 -10 6 0 10 5 10 10 0 6 -4 10 -10 10 -5 0
-10 -4 -10 -10z"/>
<path d="M255 4240 c-8 -13 13 -40 30 -40 10 0 11 5 2 25 -13 27 -22 31 -32
15z"/>
<path d="M211 4221 c-16 -10 -22 -93 -6 -88 6 2 11 21 13 43 2 21 9 42 15 46
7 4 8 8 2 8 -5 0 -16 -4 -24 -9z"/>
<path d="M234 4186 c-8 -22 3 -33 18 -18 9 9 9 15 0 24 -9 9 -13 7 -18 -6z"/>
<path d="M360 4060 c0 -5 5 -10 10 -10 6 0 10 5 10 10 0 6 -4 10 -10 10 -5 0
-10 -4 -10 -10z"/>
<path d="M506 4031 c-4 -7 -5 -15 -2 -18 9 -9 19 4 14 18 -4 11 -6 11 -12 0z"/>
<path d="M1510 4020 c0 -11 7 -20 15 -20 17 0 18 2 9 24 -9 23 -24 20 -24 -4z"/>
<path d="M1550 4001 c0 -5 5 -13 10 -16 6 -3 10 -2 10 4 0 5 -4 13 -10 16 -5
3 -10 2 -10 -4z"/>
<path d="M4177 3949 c6 -6 9 -18 6 -25 -3 -8 0 -14 6 -14 6 0 11 4 11 9 0 19
-12 41 -23 41 -8 0 -8 -3 0 -11z"/>
<path d="M4530 3911 c0 -5 5 -13 10 -16 6 -3 10 -2 10 4 0 5 -4 13 -10 16 -5
3 -10 2 -10 -4z"/>
<path d="M5365 3900 c4 -6 11 -8 16 -5 14 9 11 15 -7 15 -8 0 -12 -5 -9 -10z"/>
<path d="M4230 3871 c0 -17 15 -19 28 -5 11 12 9 14 -8 14 -11 0 -20 -4 -20
-9z"/>
<path d="M4882 3853 c2 -10 11 -19 21 -21 23 -5 21 10 -4 26 -18 12 -20 11
-17 -5z"/>
<path d="M4687 3798 c6 -11 43 -10 43 1 0 5 -11 8 -24 7 -13 0 -22 -4 -19 -8z"/>
<path d="M5420 3760 c0 -5 5 -10 10 -10 6 0 10 5 10 10 0 6 -4 10 -10 10 -5 0
-10 -4 -10 -10z"/>
<path d="M5420 3711 c0 -6 9 -9 20 -8 11 1 20 5 20 9 0 4 -9 8 -20 8 -11 0
-20 -4 -20 -9z"/>
<path d="M6340 3299 c7 -13 17 -18 27 -15 9 4 22 -1 29 -11 13 -17 15 -17 29
1 18 23 23 20 31 -22 5 -26 3 -32 -10 -32 -10 0 -15 4 -12 8 2 4 -11 12 -30
18 -33 11 -46 3 -21 -13 7 -4 26 -24 42 -45 35 -44 52 -40 49 12 -2 41 10 49
50 34 25 -9 19 -34 -8 -34 -29 0 -30 -25 -1 -57 23 -27 45 -30 45 -6 0 9 3 13
8 9 7 -8 8 -13 11 -41 0 -8 7 -15 15 -15 8 0 16 -7 20 -15 5 -15 37 -22 35 -7
-1 4 -1 16 0 27 2 19 3 19 13 -2 16 -33 39 -28 71 13 29 36 30 64 2 64 -18 0
-19 -12 -3 -28 9 -9 9 -12 1 -12 -7 0 -15 5 -19 11 -4 8 -11 3 -20 -12 l-12
-24 -13 28 c-8 17 -16 24 -23 18 -6 -5 -21 -11 -32 -15 -16 -5 -23 -2 -27 14
-3 12 -13 20 -26 20 -22 0 -25 11 -12 44 7 18 8 18 14 3 4 -10 17 -17 32 -17
15 0 25 -6 25 -14 0 -10 7 -13 23 -9 12 3 32 5 45 5 12 0 22 2 22 4 0 7 -83
43 -90 39 -4 -3 -10 1 -13 9 -3 8 -30 21 -61 30 -30 9 -58 21 -61 26 -3 6 -21
10 -38 10 -18 0 -39 4 -47 10 -9 6 -17 5 -22 -3 -5 -9 -10 -9 -20 1 -19 19
-30 14 -18 -9z m135 -19 c3 -5 1 -10 -4 -10 -6 0 -11 5 -11 10 0 6 2 10 4 10
3 0 8 -4 11 -10z"/>
<path d="M6490 3120 c0 -15 21 -23 32 -12 6 6 2 11 -11 15 -12 3 -21 1 -21 -3z"/>
<path d="M6549 3108 c-6 -25 -6 -38 1 -38 12 0 20 29 10 35 -6 4 -10 5 -11 3z"/>
<path d="M6785 3060 c3 -5 8 -10 11 -10 2 0 4 5 4 10 0 6 -5 10 -11 10 -5 0
-7 -4 -4 -10z"/>
<path d="M230 2666 c0 -9 7 -12 20 -9 31 8 34 23 6 23 -16 0 -26 -6 -26 -14z"/>
<path d="M6586 2655 c9 -14 18 -25 20 -25 2 0 -2 11 -8 25 -6 14 -15 25 -20
25 -5 0 -1 -11 8 -25z"/>
<path d="M6410 2646 c0 -2 7 -9 15 -16 12 -10 15 -10 15 4 0 9 -7 16 -15 16
-8 0 -15 -2 -15 -4z"/>
<path d="M230 2630 c0 -5 12 -10 28 -9 24 0 25 1 7 9 -27 12 -35 12 -35 0z"/>
<path d="M6528 2605 c-3 -3 -3 -17 0 -32 l5 -26 13 24 c12 23 10 39 -5 39 -4
0 -10 -2 -13 -5z"/>
<path d="M245 2590 c-18 -8 -17 -9 8 -9 16 -1 26 3 22 9 -3 6 -7 10 -8 9 -1 0
-11 -4 -22 -9z"/>
<path d="M240 2540 c0 -5 6 -10 14 -10 8 0 18 5 21 10 3 6 -3 10 -14 10 -12 0
-21 -4 -21 -10z"/>
<path d="M6539 2525 c-10 -16 1 -69 19 -92 17 -20 89 -42 77 -23 -3 6 -12 10
-19 10 -23 0 -40 28 -27 44 8 10 9 16 1 21 -5 3 -10 -1 -10 -11 0 -27 -28 3
-32 34 -2 15 -6 23 -9 17z"/>
<path d="M233 2499 c11 -7 23 -7 35 0 14 9 11 10 -18 10 -29 0 -32 -1 -17 -10z"/>
<path d="M205 2450 c-4 -6 10 -10 34 -10 23 0 41 5 41 10 0 6 -15 10 -34 10
-19 0 -38 -4 -41 -10z"/>
<path d="M7186 2435 c-3 -9 0 -15 9 -15 8 0 15 7 15 15 0 8 -4 15 -9 15 -5 0
-11 -7 -15 -15z"/>
<path d="M240 2395 c-20 -24 -6 -28 15 -5 10 11 13 20 8 20 -6 0 -16 -7 -23
-15z"/>
<path d="M7165 2401 c-3 -6 -2 -18 3 -27 7 -13 10 -13 20 -1 10 11 9 17 -2 26
-10 8 -16 9 -21 2z"/>
<path d="M6675 2390 c3 -5 8 -10 11 -10 2 0 4 5 4 10 0 6 -5 10 -11 10 -5 0
-7 -4 -4 -10z"/>
<path d="M6630 2370 c0 -5 5 -10 11 -10 5 0 7 5 4 10 -3 6 -8 10 -11 10 -2 0
-4 -4 -4 -10z"/>
<path d="M225 2340 c3 -5 8 -10 11 -10 2 0 4 5 4 10 0 6 -5 10 -11 10 -5 0 -7
-4 -4 -10z"/>
<path d="M230 2310 c-12 -8 -9 -10 12 -10 15 0 30 5 33 10 8 13 -25 13 -45 0z"/>
<path d="M7045 2300 c3 -5 10 -10 16 -10 5 0 9 5 9 10 0 6 -7 10 -16 10 -8 0
-12 -4 -9 -10z"/>
<path d="M6988 2293 c6 -2 18 -2 25 0 6 3 1 5 -13 5 -14 0 -19 -2 -12 -5z"/>
<path d="M7180 1864 c-39 -21 -41 -24 -15 -19 17 4 39 15 50 26 25 25 20 24
-35 -7z"/>
<path d="M350 1690 c0 -5 5 -10 10 -10 6 0 10 5 10 10 0 6 -4 10 -10 10 -5 0
-10 -4 -10 -10z"/>
<path d="M287 1660 c-4 -15 0 -20 15 -20 18 0 19 2 7 18 -7 9 -14 18 -15 20
-1 1 -4 -6 -7 -18z"/>
<path d="M293 1608 c3 -10 2 -20 -3 -23 -12 -8 -13 -35 -1 -35 13 0 21 54 9
65 -8 7 -9 5 -5 -7z"/>
<path d="M925 1590 c-3 -5 -1 -10 4 -10 6 0 11 5 11 10 0 6 -2 10 -4 10 -3 0
-8 -4 -11 -10z"/>
<path d="M556 1478 c-20 -23 -36 -49 -36 -59 0 -22 24 -31 52 -18 21 8 20 9
-5 4 -26 -5 -27 -4 -17 15 6 11 16 20 22 20 6 0 8 3 5 6 -4 4 2 19 13 34 40
57 14 55 -34 -2z"/>
<path d="M695 1130 c4 -6 11 -8 16 -5 14 9 11 15 -7 15 -8 0 -12 -5 -9 -10z"/>
<path d="M750 1130 c0 -5 5 -10 11 -10 5 0 7 5 4 10 -3 6 -8 10 -11 10 -2 0
-4 -4 -4 -10z"/>
<path d="M483 1123 c15 -2 37 -2 50 0 12 2 0 4 -28 4 -27 0 -38 -2 -22 -4z"/>
<path d="M756 1094 c-4 -9 -4 -19 -1 -22 2 -3 7 3 11 12 4 9 4 19 1 22 -2 3
-7 -3 -11 -12z"/>
<path d="M751 1005 c0 -35 1 -37 10 -17 6 15 5 30 -1 40 -7 13 -9 8 -9 -23z"/>
<path d="M495 916 c-27 -22 -31 -22 -37 -8 -6 14 -8 13 -14 -6 -5 -17 -12 -22
-25 -19 -10 3 -23 -1 -30 -9 -17 -20 -28 -17 -22 6 8 29 -10 24 -24 -7 -10
-21 -10 -28 0 -35 9 -6 8 -8 -3 -8 -9 0 -21 5 -28 12 -9 9 -12 0 -12 -40 0
-65 28 -112 82 -135 43 -19 62 -22 53 -7 -3 6 2 10 12 10 10 0 33 9 51 20 18
11 41 20 52 20 11 0 20 6 20 14 0 7 7 19 15 26 8 7 15 23 15 37 l0 24 -22 -21
c-26 -24 -32 -25 -48 -5 -17 20 -27 19 -35 -5 -6 -20 -71 -60 -96 -60 -7 0
-20 -7 -30 -16 -16 -14 -18 -14 -30 7 -10 20 -9 25 11 41 12 10 31 18 42 18
11 0 34 11 52 25 18 14 43 25 54 25 12 0 22 5 22 10 0 6 12 10 26 10 16 0 24
5 21 13 -2 6 -10 11 -16 10 -6 -2 -11 2 -11 7 0 6 9 10 20 10 30 0 26 38 -6
50 -14 6 -26 10 -27 10 -1 0 -15 -11 -32 -24z"/>
<path d="M753 880 c0 -25 2 -35 4 -22 2 12 2 32 0 45 -2 12 -4 2 -4 -23z"/>
<path d="M380 744 c0 -8 5 -12 10 -9 6 3 10 10 10 16 0 5 -4 9 -10 9 -5 0 -10
-7 -10 -16z"/>
<path d="M748 724 c-5 -4 -8 -44 -7 -88 1 -69 2 -76 10 -48 11 38 8 148 -3
136z"/>
<path d="M141 674 c0 -11 3 -14 6 -6 3 7 2 16 -1 19 -3 4 -6 -2 -5 -13z"/>
<path d="M7460 551 c0 -17 5 -33 10 -36 6 -4 10 8 10 29 0 20 -4 36 -10 36 -5
0 -10 -13 -10 -29z"/>
<path d="M741 534 c-1 -25 -23 -33 -101 -35 l-55 -2 50 -7 c108 -17 134 -9
117 36 -9 24 -11 25 -11 8z"/>
<path d="M130 527 c0 -9 4 -18 9 -21 5 -4 8 1 7 9 -3 21 -16 31 -16 12z"/>
<path d="M478 493 c12 -2 32 -2 45 0 12 2 2 4 -23 4 -25 0 -35 -2 -22 -4z"/>
<path d="M3675 430 c3 -5 8 -10 11 -10 2 0 4 5 4 10 0 6 -5 10 -11 10 -5 0 -7
-4 -4 -10z"/>
<path d="M2990 334 c0 -17 22 -14 28 4 2 7 -3 12 -12 12 -9 0 -16 -7 -16 -16z"/>
<path d="M3128 333 c7 -3 16 -2 19 1 4 3 -2 6 -13 5 -11 0 -14 -3 -6 -6z"/>
<path d="M3285 320 c3 -5 8 -10 11 -10 2 0 4 5 4 10 0 6 -5 10 -11 10 -5 0 -7
-4 -4 -10z"/>
</g>
</svg>
